solid Exported from Blender-2.83.9
facet normal -0.999576 0.000000 0.029104
outer loop
vertex 8.308918 -0.971558 0.700000
vertex 8.308918 -1.000000 0.700000
vertex 8.309989 -1.000000 0.736783
endloop
endfacet
facet normal -0.999576 0.000000 0.029104
outer loop
vertex 8.309989 -1.000000 0.736783
vertex 8.309989 1.000000 0.736783
vertex 8.308918 1.000000 0.700000
endloop
endfacet
facet normal -0.999576 0.000000 0.029104
outer loop
vertex 8.309989 -1.000000 0.736783
vertex 8.308918 1.000000 0.700000
vertex 8.308918 -0.971558 0.700000
endloop
endfacet
facet normal 0.996090 0.000000 -0.088341
outer loop
vertex 8.313214 -1.000000 0.773150
vertex 8.309989 -1.000000 0.736783
vertex 8.309989 1.000000 0.736783
endloop
endfacet
facet normal 0.996090 0.000000 -0.088342
outer loop
vertex 8.313214 -1.000000 0.773150
vertex 8.309989 1.000000 0.736783
vertex 8.313214 1.000000 0.773150
endloop
endfacet
facet normal 0.965019 0.000000 -0.262181
outer loop
vertex 8.321554 -1.000000 0.803847
vertex 8.313214 -1.000000 0.773150
vertex 8.313214 1.000000 0.773150
endloop
endfacet
facet normal 0.965018 0.000000 -0.262182
outer loop
vertex 8.321554 -1.000000 0.803847
vertex 8.313214 1.000000 0.773150
vertex 8.321554 1.000000 0.803847
endloop
endfacet
facet normal -0.940766 0.000000 0.339056
outer loop
vertex 8.321554 -1.000000 0.803847
vertex 8.334612 -1.000000 0.840078
vertex 8.334612 1.000000 0.840078
endloop
endfacet
facet normal -0.940766 0.000000 0.339057
outer loop
vertex 8.321554 -1.000000 0.803847
vertex 8.334612 1.000000 0.840078
vertex 8.321554 1.000000 0.803847
endloop
endfacet
facet normal 0.909914 0.000000 -0.414797
outer loop
vertex 8.350525 -1.000000 0.874985
vertex 8.334612 -1.000000 0.840078
vertex 8.334612 1.000000 0.840078
endloop
endfacet
facet normal 0.909914 0.000000 -0.414796
outer loop
vertex 8.350525 -1.000000 0.874985
vertex 8.334612 1.000000 0.840078
vertex 8.350525 1.000000 0.874985
endloop
endfacet
facet normal 0.872945 0.000000 -0.487819
outer loop
vertex 8.363662 -1.000000 0.898493
vertex 8.350525 -1.000000 0.874985
vertex 8.350525 1.000000 0.874985
endloop
endfacet
facet normal 0.872943 0.000000 -0.487821
outer loop
vertex 8.363662 -1.000000 0.898493
vertex 8.350525 1.000000 0.874985
vertex 8.363662 1.000000 0.898493
endloop
endfacet
facet normal -0.795906 0.000000 0.605420
outer loop
vertex 8.363662 -1.000000 0.898493
vertex 8.380092 -1.000000 0.920092
vertex 8.380092 1.000000 0.920092
endloop
endfacet
facet normal -0.795906 0.000000 0.605420
outer loop
vertex 8.363662 -1.000000 0.898493
vertex 8.380092 1.000000 0.920092
vertex 8.363662 1.000000 0.898493
endloop
endfacet
facet normal -0.744401 0.000000 0.667733
outer loop
vertex 8.380092 -1.000000 0.920092
vertex 8.399575 -1.000000 0.941813
vertex 8.399575 1.000000 0.941813
endloop
endfacet
facet normal -0.744401 0.000000 0.667733
outer loop
vertex 8.380092 -1.000000 0.920092
vertex 8.399575 1.000000 0.941813
vertex 8.380092 1.000000 0.920092
endloop
endfacet
facet normal 0.686915 0.000000 -0.726738
outer loop
vertex 8.420651 -1.000000 0.961734
vertex 8.399575 -1.000000 0.941813
vertex 8.399575 1.000000 0.941813
endloop
endfacet
facet normal 0.686915 0.000000 -0.726738
outer loop
vertex 8.420651 -1.000000 0.961734
vertex 8.399575 1.000000 0.941813
vertex 8.420651 1.000000 0.961734
endloop
endfacet
facet normal 0.624395 0.000000 -0.781109
outer loop
vertex 8.434673 -1.000000 0.972943
vertex 8.420651 -1.000000 0.961734
vertex 8.420651 1.000000 0.961734
endloop
endfacet
facet normal 0.624395 0.000000 -0.781109
outer loop
vertex 8.434673 -1.000000 0.972943
vertex 8.420651 1.000000 0.961734
vertex 8.434673 1.000000 0.972943
endloop
endfacet
facet normal -0.518351 0.000000 0.855168
outer loop
vertex 8.434673 -1.000000 0.972943
vertex 8.450469 -1.000000 0.982517
vertex 8.450469 1.000000 0.982517
endloop
endfacet
facet normal -0.518351 0.000000 0.855168
outer loop
vertex 8.434673 -1.000000 0.972943
vertex 8.450469 1.000000 0.982517
vertex 8.434673 1.000000 0.972943
endloop
endfacet
facet normal 0.422347 0.000000 -0.906434
outer loop
vertex 8.472017 -1.000000 0.992558
vertex 8.450469 -1.000000 0.982517
vertex 8.450469 1.000000 0.982517
endloop
endfacet
facet normal 0.422347 0.000000 -0.906434
outer loop
vertex 8.472017 -1.000000 0.992558
vertex 8.450469 1.000000 0.982517
vertex 8.472017 1.000000 0.992558
endloop
endfacet
facet normal 0.401262 0.000000 -0.915963
outer loop
vertex 8.478940 -1.000000 0.995590
vertex 8.472017 -1.000000 0.992558
vertex 8.472017 1.000000 0.992558
endloop
endfacet
facet normal 0.401262 0.000000 -0.915963
outer loop
vertex 8.478940 -1.000000 0.995590
vertex 8.472017 1.000000 0.992558
vertex 8.478940 1.000000 0.995590
endloop
endfacet
facet normal 0.307446 0.000000 -0.951566
outer loop
vertex 8.484909 -1.000000 0.997519
vertex 8.478940 -1.000000 0.995590
vertex 8.478940 1.000000 0.995590
endloop
endfacet
facet normal 0.307463 0.000000 -0.951560
outer loop
vertex 8.484909 -1.000000 0.997519
vertex 8.478940 1.000000 0.995590
vertex 8.484909 1.000000 0.997519
endloop
endfacet
facet normal -0.224478 0.000000 0.974479
outer loop
vertex 8.484909 -1.000000 0.997519
vertex 8.492088 -1.000000 0.999173
vertex 8.492088 1.000000 0.999173
endloop
endfacet
facet normal -0.224478 0.000000 0.974479
outer loop
vertex 8.484909 -1.000000 0.997519
vertex 8.492088 1.000000 0.999173
vertex 8.484909 1.000000 0.997519
endloop
endfacet
facet normal 0.103957 0.000000 -0.994582
outer loop
vertex 8.500000 -1.000000 1.000000
vertex 8.492088 -1.000000 0.999173
vertex 8.492088 1.000000 0.999173
endloop
endfacet
facet normal 0.103942 0.000000 -0.994583
outer loop
vertex 8.500000 -1.000000 1.000000
vertex 8.492088 1.000000 0.999173
vertex 8.500000 1.000000 1.000000
endloop
endfacet
facet normal 0.000000 0.000000 -1.000000
outer loop
vertex 8.500000 1.000000 0.700000
vertex 8.500000 -1.000000 0.700000
vertex 8.308918 -1.000000 0.700000
endloop
endfacet
facet normal 0.000000 0.000000 -1.000000
outer loop
vertex 8.308918 -0.971558 0.700000
vertex 8.308918 1.000000 0.700000
vertex 8.500000 1.000000 0.700000
endloop
endfacet
facet normal 0.000000 0.000000 -1.000000
outer loop
vertex 8.308918 -1.000000 0.700000
vertex 8.308918 -0.971558 0.700000
vertex 8.500000 1.000000 0.700000
endloop
endfacet
facet normal -1.000000 0.000000 0.000000
outer loop
vertex 8.500000 -1.000000 1.000000
vertex 8.500000 1.000000 1.000000
vertex 8.500000 1.000000 0.700000
endloop
endfacet
facet normal -1.000000 0.000000 0.000000
outer loop
vertex 8.500000 -1.000000 1.000000
vertex 8.500000 1.000000 0.700000
vertex 8.500000 -1.000000 0.700000
endloop
endfacet
facet normal 0.000000 1.000000 -0.000000
outer loop
vertex 8.500000 -1.000000 0.700000
vertex 8.308918 -1.000000 0.700000
vertex 8.309989 -1.000000 0.736783
endloop
endfacet
facet normal 0.000000 1.000000 0.000000
outer loop
vertex 8.484909 -1.000000 0.997519
vertex 8.492088 -1.000000 0.999173
vertex 8.500000 -1.000000 1.000000
endloop
endfacet
facet normal 0.000000 1.000000 0.000000
outer loop
vertex 8.420651 -1.000000 0.961734
vertex 8.434673 -1.000000 0.972943
vertex 8.450469 -1.000000 0.982517
endloop
endfacet
facet normal 0.000000 1.000000 0.000043
outer loop
vertex 8.500000 -1.000000 1.000000
vertex 8.472017 -1.000000 0.992558
vertex 8.484909 -1.000000 0.997519
endloop
endfacet
facet normal 0.000000 -1.000000 0.000000
outer loop
vertex 8.492088 1.000000 0.999173
vertex 8.484909 1.000000 0.997519
vertex 8.500000 1.000000 1.000000
endloop
endfacet
facet normal 0.000000 1.000000 0.000000
outer loop
vertex 8.472017 -1.000000 0.992558
vertex 8.500000 -1.000000 1.000000
vertex 8.450469 -1.000000 0.982517
endloop
endfacet
facet normal 0.000000 1.000000 0.000000
outer loop
vertex 8.500000 -1.000000 0.700000
vertex 8.420651 -1.000000 0.961734
vertex 8.450469 -1.000000 0.982517
endloop
endfacet
facet normal 0.000000 1.000000 0.000000
outer loop
vertex 8.500000 -1.000000 1.000000
vertex 8.500000 -1.000000 0.700000
vertex 8.450469 -1.000000 0.982517
endloop
endfacet
facet normal 0.000000 1.000000 0.000000
outer loop
vertex 8.420651 -1.000000 0.961734
vertex 8.500000 -1.000000 0.700000
vertex 8.399575 -1.000000 0.941813
endloop
endfacet
facet normal 0.000000 1.000000 0.000002
outer loop
vertex 8.399575 -1.000000 0.941813
vertex 8.500000 -1.000000 0.700000
vertex 8.380092 -1.000000 0.920092
endloop
endfacet
facet normal 0.000000 1.000000 0.000000
outer loop
vertex 8.380092 -1.000000 0.920092
vertex 8.500000 -1.000000 0.700000
vertex 8.363662 -1.000000 0.898493
endloop
endfacet
facet normal 0.000000 1.000000 0.000000
outer loop
vertex 8.363662 -1.000000 0.898493
vertex 8.500000 -1.000000 0.700000
vertex 8.350525 -1.000000 0.874985
endloop
endfacet
facet normal 0.000000 1.000000 0.000000
outer loop
vertex 8.350525 -1.000000 0.874985
vertex 8.500000 -1.000000 0.700000
vertex 8.334612 -1.000000 0.840078
endloop
endfacet
facet normal 0.000000 1.000000 0.000000
outer loop
vertex 8.334612 -1.000000 0.840078
vertex 8.500000 -1.000000 0.700000
vertex 8.321554 -1.000000 0.803847
endloop
endfacet
facet normal 0.000000 1.000000 0.000000
outer loop
vertex 8.321554 -1.000000 0.803847
vertex 8.500000 -1.000000 0.700000
vertex 8.313214 -1.000000 0.773150
endloop
endfacet
facet normal 0.000000 1.000000 0.000000
outer loop
vertex 8.313214 -1.000000 0.773150
vertex 8.500000 -1.000000 0.700000
vertex 8.309989 -1.000000 0.736783
endloop
endfacet
facet normal 0.000000 1.000000 -0.000196
outer loop
vertex 8.472017 -1.000000 0.992558
vertex 8.478940 -1.000000 0.995590
vertex 8.484909 -1.000000 0.997519
endloop
endfacet
facet normal 0.000000 -1.000000 0.000392
outer loop
vertex 8.478940 1.000000 0.995590
vertex 8.472017 1.000000 0.992558
vertex 8.484909 1.000000 0.997519
endloop
endfacet
facet normal 0.000000 -1.000000 -0.000043
outer loop
vertex 8.472017 1.000000 0.992558
vertex 8.500000 1.000000 1.000000
vertex 8.484909 1.000000 0.997519
endloop
endfacet
facet normal 0.000000 -1.000000 0.000000
outer loop
vertex 8.500000 1.000000 0.700000
vertex 8.500000 1.000000 1.000000
vertex 8.450469 1.000000 0.982517
endloop
endfacet
facet normal 0.000000 -1.000000 0.000000
outer loop
vertex 8.434673 1.000000 0.972943
vertex 8.420651 1.000000 0.961734
vertex 8.450469 1.000000 0.982517
endloop
endfacet
facet normal 0.000000 -1.000000 0.000031
outer loop
vertex 8.500000 1.000000 1.000000
vertex 8.472017 1.000000 0.992558
vertex 8.450469 1.000000 0.982517
endloop
endfacet
facet normal 0.000000 -1.000000 0.000002
outer loop
vertex 8.500000 1.000000 0.700000
vertex 8.420651 1.000000 0.961734
vertex 8.399575 1.000000 0.941813
endloop
endfacet
facet normal 0.000000 -1.000000 -0.000001
outer loop
vertex 8.500000 1.000000 0.700000
vertex 8.399575 1.000000 0.941813
vertex 8.380092 1.000000 0.920092
endloop
endfacet
facet normal 0.000000 -1.000000 0.000001
outer loop
vertex 8.500000 1.000000 0.700000
vertex 8.380092 1.000000 0.920092
vertex 8.363662 1.000000 0.898493
endloop
endfacet
facet normal 0.000000 -1.000000 0.000001
outer loop
vertex 8.500000 1.000000 0.700000
vertex 8.363662 1.000000 0.898493
vertex 8.350525 1.000000 0.874985
endloop
endfacet
facet normal 0.000000 -1.000000 -0.000003
outer loop
vertex 8.500000 1.000000 0.700000
vertex 8.350525 1.000000 0.874985
vertex 8.334612 1.000000 0.840078
endloop
endfacet
facet normal 0.000000 -1.000000 0.000001
outer loop
vertex 8.500000 1.000000 0.700000
vertex 8.334612 1.000000 0.840078
vertex 8.321554 1.000000 0.803847
endloop
endfacet
facet normal 0.000000 -1.000000 0.000001
outer loop
vertex 8.500000 1.000000 0.700000
vertex 8.321554 1.000000 0.803847
vertex 8.313214 1.000000 0.773150
endloop
endfacet
facet normal 0.000000 -1.000000 0.000000
outer loop
vertex 8.500000 1.000000 0.700000
vertex 8.313214 1.000000 0.773150
vertex 8.309989 1.000000 0.736783
endloop
endfacet
facet normal 0.000000 -1.000000 0.000000
outer loop
vertex 8.308918 1.000000 0.700000
vertex 8.500000 1.000000 0.700000
vertex 8.309989 1.000000 0.736783
endloop
endfacet
facet normal 0.000000 -1.000000 -0.000001
outer loop
vertex 8.420651 1.000000 0.961734
vertex 8.500000 1.000000 0.700000
vertex 8.450469 1.000000 0.982517
endloop
endfacet
facet normal 1.000000 0.000000 0.000000
outer loop
vertex 8.500000 1.000000 0.700000
vertex 8.500000 1.000000 1.000000
vertex 8.500000 -1.000000 1.000000
endloop
endfacet
facet normal 1.000000 0.000000 0.000000
outer loop
vertex 8.500000 1.000000 0.700000
vertex 8.500000 -1.000000 1.000000
vertex 8.500000 -1.000000 0.700000
endloop
endfacet
facet normal -1.000000 0.000000 0.000000
outer loop
vertex 8.500000 -1.000000 0.700000
vertex 8.500000 -1.000000 1.000000
vertex 8.500000 1.000000 1.000000
endloop
endfacet
facet normal -1.000000 0.000000 0.000000
outer loop
vertex 8.500000 -1.000000 0.700000
vertex 8.500000 1.000000 1.000000
vertex 8.500000 1.000000 0.700000
endloop
endfacet
facet normal 1.000000 0.000000 0.000000
outer loop
vertex 8.600000 -0.900000 0.800000
vertex 8.600000 0.900000 0.800000
vertex 8.600000 0.900000 1.000000
endloop
endfacet
facet normal 1.000000 0.000000 0.000000
outer loop
vertex 8.600000 -0.900000 0.800000
vertex 8.600000 0.900000 1.000000
vertex 8.600000 -0.900000 1.000000
endloop
endfacet
facet normal -0.000000 -1.000000 0.000000
outer loop
vertex 8.600000 0.900000 0.800000
vertex 11.400001 0.900000 0.800000
vertex 11.400001 0.900000 1.000000
endloop
endfacet
facet normal -0.000000 -1.000000 0.000000
outer loop
vertex 8.600000 0.900000 0.800000
vertex 11.400001 0.900000 1.000000
vertex 8.600000 0.900000 1.000000
endloop
endfacet
facet normal -1.000000 0.000000 0.000000
outer loop
vertex 11.400001 0.900000 0.800000
vertex 11.400001 -0.900000 0.800000
vertex 11.400001 -0.900000 1.000000
endloop
endfacet
facet normal -1.000000 0.000000 0.000000
outer loop
vertex 11.400001 0.900000 0.800000
vertex 11.400001 -0.900000 1.000000
vertex 11.400001 0.900000 1.000000
endloop
endfacet
facet normal 0.000000 1.000000 0.000000
outer loop
vertex 11.400001 -0.900000 0.800000
vertex 8.600000 -0.900000 0.800000
vertex 8.600000 -0.900000 1.000000
endloop
endfacet
facet normal 0.000000 1.000000 0.000000
outer loop
vertex 11.400001 -0.900000 0.800000
vertex 8.600000 -0.900000 1.000000
vertex 11.400001 -0.900000 1.000000
endloop
endfacet
facet normal 0.000000 0.000000 1.000000
outer loop
vertex 8.600000 0.900000 0.800000
vertex 8.600000 -0.900000 0.800000
vertex 11.400001 -0.900000 0.800000
endloop
endfacet
facet normal 0.000000 0.000000 1.000000
outer loop
vertex 8.600000 0.900000 0.800000
vertex 11.400001 -0.900000 0.800000
vertex 11.400001 0.900000 0.800000
endloop
endfacet
facet normal -1.000000 -0.000001 0.000000
outer loop
vertex 8.500001 -1.000000 0.700000
vertex 8.500001 -1.000000 1.000000
vertex 8.500000 1.000000 1.000000
endloop
endfacet
facet normal -1.000000 0.000000 -0.000003
outer loop
vertex 8.500001 -1.000000 0.700000
vertex 8.500000 1.000000 1.000000
vertex 8.500001 1.000000 0.700000
endloop
endfacet
facet normal 0.000000 1.000000 0.000000
outer loop
vertex 8.500001 1.000000 0.700000
vertex 8.500000 1.000000 1.000000
vertex 11.500000 1.000000 1.000000
endloop
endfacet
facet normal 0.000000 1.000000 0.000000
outer loop
vertex 8.500001 1.000000 0.700000
vertex 11.500000 1.000000 1.000000
vertex 11.500000 1.000000 0.700000
endloop
endfacet
facet normal 1.000000 0.000000 0.000000
outer loop
vertex 11.500000 1.000000 0.700000
vertex 11.500000 1.000000 1.000000
vertex 11.500000 -1.000000 1.000000
endloop
endfacet
facet normal 1.000000 0.000000 0.000000
outer loop
vertex 11.500000 1.000000 0.700000
vertex 11.500000 -1.000000 1.000000
vertex 11.500000 -1.000000 0.700000
endloop
endfacet
facet normal -0.000000 -1.000000 0.000000
outer loop
vertex 11.500000 -1.000000 0.700000
vertex 11.500000 -1.000000 1.000000
vertex 8.500001 -1.000000 1.000000
endloop
endfacet
facet normal -0.000000 -1.000000 0.000000
outer loop
vertex 11.500000 -1.000000 0.700000
vertex 8.500001 -1.000000 1.000000
vertex 8.500001 -1.000000 0.700000
endloop
endfacet
facet normal 0.000000 0.000000 -1.000000
outer loop
vertex 8.500001 1.000000 0.700000
vertex 11.500000 1.000000 0.700000
vertex 11.500000 -1.000000 0.700000
endloop
endfacet
facet normal -0.000000 0.000000 -1.000000
outer loop
vertex 8.500001 1.000000 0.700000
vertex 11.500000 -1.000000 0.700000
vertex 8.500001 -1.000000 0.700000
endloop
endfacet
facet normal 0.000001 0.000000 1.000000
outer loop
vertex 11.500000 -1.000000 1.000000
vertex 11.500000 1.000000 1.000000
vertex 11.400001 0.900000 1.000000
endloop
endfacet
facet normal 0.000000 0.000000 1.000000
outer loop
vertex 11.400001 -0.900000 1.000000
vertex 8.600000 -0.900000 1.000000
vertex 8.500001 -1.000000 1.000000
endloop
endfacet
facet normal 0.000000 0.000000 1.000000
outer loop
vertex 11.500000 -1.000000 1.000000
vertex 11.400001 0.900000 1.000000
vertex 11.400001 -0.900000 1.000000
endloop
endfacet
facet normal 0.000000 0.000000 1.000000
outer loop
vertex 11.400001 -0.900000 1.000000
vertex 8.500001 -1.000000 1.000000
vertex 11.500000 -1.000000 1.000000
endloop
endfacet
facet normal 0.000001 0.000000 1.000000
outer loop
vertex 8.500000 1.000000 1.000000
vertex 8.500001 -1.000000 1.000000
vertex 8.600000 -0.900000 1.000000
endloop
endfacet
facet normal 0.000000 0.000000 1.000000
outer loop
vertex 8.600000 0.900000 1.000000
vertex 11.400001 0.900000 1.000000
vertex 11.500000 1.000000 1.000000
endloop
endfacet
facet normal 0.000000 0.000000 1.000000
outer loop
vertex 8.500000 1.000000 1.000000
vertex 8.600000 -0.900000 1.000000
vertex 8.600000 0.900000 1.000000
endloop
endfacet
facet normal 0.000000 0.000000 1.000000
outer loop
vertex 8.600000 0.900000 1.000000
vertex 11.500000 1.000000 1.000000
vertex 8.500000 1.000000 1.000000
endloop
endfacet
facet normal -1.000000 0.000000 0.000000
outer loop
vertex 11.400001 -1.000000 0.700000
vertex 11.400001 -1.000000 1.300000
vertex 11.400001 1.000000 1.300000
endloop
endfacet
facet normal -1.000000 0.000000 0.000000
outer loop
vertex 11.400001 -1.000000 0.700000
vertex 11.400001 1.000000 1.300000
vertex 11.400001 1.000000 0.700000
endloop
endfacet
facet normal 0.000000 1.000000 0.000000
outer loop
vertex 11.400001 1.000000 0.700000
vertex 11.400001 1.000000 1.300000
vertex 11.500000 1.000000 1.300000
endloop
endfacet
facet normal 0.000000 1.000000 0.000000
outer loop
vertex 11.400001 1.000000 0.700000
vertex 11.500000 1.000000 1.300000
vertex 11.500000 1.000000 0.700000
endloop
endfacet
facet normal 1.000000 0.000000 0.000000
outer loop
vertex 11.500000 1.000000 0.700000
vertex 11.500000 1.000000 1.300000
vertex 11.500000 -1.000000 1.300000
endloop
endfacet
facet normal 1.000000 0.000000 0.000000
outer loop
vertex 11.500000 1.000000 0.700000
vertex 11.500000 -1.000000 1.300000
vertex 11.500000 -1.000000 0.700000
endloop
endfacet
facet normal 0.000000 -1.000000 0.000000
outer loop
vertex 11.500000 -1.000000 0.700000
vertex 11.500000 -1.000000 1.300000
vertex 11.400001 -1.000000 1.300000
endloop
endfacet
facet normal 0.000000 -1.000000 0.000000
outer loop
vertex 11.500000 -1.000000 0.700000
vertex 11.400001 -1.000000 1.300000
vertex 11.400001 -1.000000 0.700000
endloop
endfacet
facet normal 0.000000 0.000000 -1.000000
outer loop
vertex 11.400001 1.000000 0.700000
vertex 11.500000 1.000000 0.700000
vertex 11.500000 -1.000000 0.700000
endloop
endfacet
facet normal 0.000000 0.000000 -1.000000
outer loop
vertex 11.400001 1.000000 0.700000
vertex 11.500000 -1.000000 0.700000
vertex 11.400001 -1.000000 0.700000
endloop
endfacet
facet normal 0.000000 0.000000 1.000000
outer loop
vertex 11.500000 1.000000 1.300000
vertex 11.400001 1.000000 1.300000
vertex 11.400001 -1.000000 1.300000
endloop
endfacet
facet normal 0.000000 0.000000 1.000000
outer loop
vertex 11.500000 1.000000 1.300000
vertex 11.400001 -1.000000 1.300000
vertex 11.500000 -1.000000 1.300000
endloop
endfacet
endsolid Exported from Blender-2.83.9
