solid Exported from Blender-2.83.9
facet normal -0.098016 0.000000 0.995185
outer loop
vertex 8.500000 -1.000000 1.000000
vertex 8.500000 1.000000 1.000000
vertex 8.441473 1.000000 0.994236
endloop
endfacet
facet normal -0.098016 0.000000 0.995185
outer loop
vertex 8.500000 -1.000000 1.000000
vertex 8.441473 1.000000 0.994236
vertex 8.441473 -1.000000 0.994236
endloop
endfacet
facet normal -0.290283 0.000000 0.956941
outer loop
vertex 8.441473 -1.000000 0.994236
vertex 8.441473 1.000000 0.994236
vertex 8.385195 1.000000 0.977164
endloop
endfacet
facet normal -0.290283 0.000000 0.956941
outer loop
vertex 8.441473 -1.000000 0.994236
vertex 8.385195 1.000000 0.977164
vertex 8.385195 -1.000000 0.977164
endloop
endfacet
facet normal -0.471401 0.000000 0.881919
outer loop
vertex 8.385195 -1.000000 0.977164
vertex 8.385195 1.000000 0.977164
vertex 8.333329 1.000000 0.949441
endloop
endfacet
facet normal -0.471400 0.000000 0.881920
outer loop
vertex 8.385195 -1.000000 0.977164
vertex 8.333329 1.000000 0.949441
vertex 8.333329 -1.000000 0.949441
endloop
endfacet
facet normal -0.634387 0.000000 0.773015
outer loop
vertex 8.333329 -1.000000 0.949441
vertex 8.333329 1.000000 0.949441
vertex 8.287868 1.000000 0.912132
endloop
endfacet
facet normal -0.634388 0.000000 0.773015
outer loop
vertex 8.333329 -1.000000 0.949441
vertex 8.287868 1.000000 0.912132
vertex 8.287868 -1.000000 0.912132
endloop
endfacet
facet normal -0.773012 0.000000 0.634392
outer loop
vertex 8.287868 -1.000000 0.912132
vertex 8.287868 1.000000 0.912132
vertex 8.250559 1.000000 0.866671
endloop
endfacet
facet normal -0.773012 0.000000 0.634392
outer loop
vertex 8.287868 -1.000000 0.912132
vertex 8.250559 1.000000 0.866671
vertex 8.250559 -1.000000 0.866671
endloop
endfacet
facet normal -0.881919 0.000000 0.471401
outer loop
vertex 8.250559 -1.000000 0.866671
vertex 8.250559 1.000000 0.866671
vertex 8.222836 1.000000 0.814805
endloop
endfacet
facet normal -0.881919 0.000000 0.471401
outer loop
vertex 8.250559 -1.000000 0.866671
vertex 8.222836 1.000000 0.814805
vertex 8.222836 -1.000000 0.814805
endloop
endfacet
facet normal -0.956945 0.000000 0.290270
outer loop
vertex 8.222836 -1.000000 0.814805
vertex 8.222836 1.000000 0.814805
vertex 8.205765 1.000000 0.758527
endloop
endfacet
facet normal -0.956945 -0.000000 0.290270
outer loop
vertex 8.222836 -1.000000 0.814805
vertex 8.205765 1.000000 0.758527
vertex 8.205765 -1.000000 0.758527
endloop
endfacet
facet normal -0.995184 0.000000 0.098026
outer loop
vertex 8.205765 -1.000000 0.758527
vertex 8.205765 1.000000 0.758527
vertex 8.200000 1.000000 0.700000
endloop
endfacet
facet normal -0.995184 0.000000 0.098026
outer loop
vertex 8.205765 -1.000000 0.758527
vertex 8.200000 1.000000 0.700000
vertex 8.200000 -1.000000 0.700000
endloop
endfacet
facet normal 1.000000 0.000000 0.000000
outer loop
vertex 8.500000 1.000000 0.700000
vertex 8.500000 1.000000 1.000000
vertex 8.500000 -1.000000 1.000000
endloop
endfacet
facet normal 1.000000 0.000000 0.000000
outer loop
vertex 8.500000 1.000000 0.700000
vertex 8.500000 -1.000000 1.000000
vertex 8.500000 -1.000000 0.700000
endloop
endfacet
facet normal 0.000000 1.000000 0.000000
outer loop
vertex 8.500000 1.000000 0.700000
vertex 8.200000 1.000000 0.700000
vertex 8.205765 1.000000 0.758527
endloop
endfacet
facet normal 0.000000 1.000000 0.000000
outer loop
vertex 8.205765 1.000000 0.758527
vertex 8.222836 1.000000 0.814805
vertex 8.250559 1.000000 0.866671
endloop
endfacet
facet normal 0.000000 1.000000 0.000000
outer loop
vertex 8.250559 1.000000 0.866671
vertex 8.287868 1.000000 0.912132
vertex 8.333329 1.000000 0.949441
endloop
endfacet
facet normal 0.000000 1.000000 0.000000
outer loop
vertex 8.333329 1.000000 0.949441
vertex 8.385195 1.000000 0.977164
vertex 8.441473 1.000000 0.994236
endloop
endfacet
facet normal 0.000000 1.000000 0.000000
outer loop
vertex 8.441473 1.000000 0.994236
vertex 8.500000 1.000000 1.000000
vertex 8.500000 1.000000 0.700000
endloop
endfacet
facet normal 0.000000 1.000000 0.000000
outer loop
vertex 8.500000 1.000000 0.700000
vertex 8.205765 1.000000 0.758527
vertex 8.250559 1.000000 0.866671
endloop
endfacet
facet normal 0.000000 1.000000 0.000000
outer loop
vertex 8.250559 1.000000 0.866671
vertex 8.333329 1.000000 0.949441
vertex 8.441473 1.000000 0.994236
endloop
endfacet
facet normal 0.000000 1.000000 0.000000
outer loop
vertex 8.250559 1.000000 0.866671
vertex 8.441473 1.000000 0.994236
vertex 8.500000 1.000000 0.700000
endloop
endfacet
facet normal 0.000000 -1.000000 0.000000
outer loop
vertex 8.205765 -1.000000 0.758527
vertex 8.200000 -1.000000 0.700000
vertex 8.500000 -1.000000 0.700000
endloop
endfacet
facet normal 0.000000 -1.000000 0.000000
outer loop
vertex 8.500000 -1.000000 0.700000
vertex 8.500000 -1.000000 1.000000
vertex 8.441473 -1.000000 0.994236
endloop
endfacet
facet normal 0.000000 -1.000000 0.000000
outer loop
vertex 8.441473 -1.000000 0.994236
vertex 8.385195 -1.000000 0.977164
vertex 8.333329 -1.000000 0.949441
endloop
endfacet
facet normal 0.000000 -1.000000 0.000000
outer loop
vertex 8.333329 -1.000000 0.949441
vertex 8.287868 -1.000000 0.912132
vertex 8.250559 -1.000000 0.866671
endloop
endfacet
facet normal 0.000000 -1.000000 0.000000
outer loop
vertex 8.250559 -1.000000 0.866671
vertex 8.222836 -1.000000 0.814805
vertex 8.205765 -1.000000 0.758527
endloop
endfacet
facet normal 0.000000 -1.000000 0.000000
outer loop
vertex 8.205765 -1.000000 0.758527
vertex 8.500000 -1.000000 0.700000
vertex 8.441473 -1.000000 0.994236
endloop
endfacet
facet normal 0.000000 -1.000000 0.000000
outer loop
vertex 8.441473 -1.000000 0.994236
vertex 8.333329 -1.000000 0.949441
vertex 8.250559 -1.000000 0.866671
endloop
endfacet
facet normal 0.000000 -1.000000 0.000000
outer loop
vertex 8.441473 -1.000000 0.994236
vertex 8.250559 -1.000000 0.866671
vertex 8.205765 -1.000000 0.758527
endloop
endfacet
facet normal -0.000000 -0.000000 1.000000
outer loop
vertex 8.500000 -1.000000 0.700000
vertex 8.500000 1.000000 0.700000
vertex 8.200000 1.000000 0.700000
endloop
endfacet
facet normal -0.000000 0.000000 1.000000
outer loop
vertex 8.500000 -1.000000 0.700000
vertex 8.200000 1.000000 0.700000
vertex 8.200000 -1.000000 0.700000
endloop
endfacet
facet normal 1.000000 0.000000 0.000000
outer loop
vertex 8.600000 -0.900000 0.800000
vertex 8.600000 0.900000 0.800000
vertex 8.600000 0.900000 1.000000
endloop
endfacet
facet normal 1.000000 0.000000 0.000000
outer loop
vertex 8.600000 -0.900000 0.800000
vertex 8.600000 0.900000 1.000000
vertex 8.600000 -0.900000 1.000000
endloop
endfacet
facet normal 0.000000 -1.000000 0.000000
outer loop
vertex 8.600000 0.900000 0.800000
vertex 11.400001 0.900000 0.800000
vertex 11.400001 0.900000 1.000000
endloop
endfacet
facet normal 0.000000 -1.000000 0.000000
outer loop
vertex 8.600000 0.900000 0.800000
vertex 11.400001 0.900000 1.000000
vertex 8.600000 0.900000 1.000000
endloop
endfacet
facet normal -1.000000 0.000000 0.000000
outer loop
vertex 11.400001 0.900000 0.800000
vertex 11.400001 -0.900000 0.800000
vertex 11.400001 -0.900000 1.000000
endloop
endfacet
facet normal -1.000000 -0.000000 0.000000
outer loop
vertex 11.400001 0.900000 0.800000
vertex 11.400001 -0.900000 1.000000
vertex 11.400001 0.900000 1.000000
endloop
endfacet
facet normal 0.000000 1.000000 0.000000
outer loop
vertex 11.400001 -0.900000 0.800000
vertex 8.600000 -0.900000 0.800000
vertex 8.600000 -0.900000 1.000000
endloop
endfacet
facet normal 0.000000 1.000000 0.000000
outer loop
vertex 11.400001 -0.900000 0.800000
vertex 8.600000 -0.900000 1.000000
vertex 11.400001 -0.900000 1.000000
endloop
endfacet
facet normal 0.000000 0.000000 1.000000
outer loop
vertex 8.600000 0.900000 0.800000
vertex 8.600000 -0.900000 0.800000
vertex 11.400001 -0.900000 0.800000
endloop
endfacet
facet normal 0.000000 0.000000 1.000000
outer loop
vertex 8.600000 0.900000 0.800000
vertex 11.400001 -0.900000 0.800000
vertex 11.400001 0.900000 0.800000
endloop
endfacet
facet normal -1.000000 0.000000 0.000000
outer loop
vertex 8.500001 -1.000000 0.700000
vertex 8.500001 -1.000000 1.000000
vertex 8.500001 1.000000 1.000000
endloop
endfacet
facet normal -1.000000 0.000000 0.000000
outer loop
vertex 8.500001 -1.000000 0.700000
vertex 8.500001 1.000000 1.000000
vertex 8.500001 1.000000 0.700000
endloop
endfacet
facet normal 0.000000 1.000000 0.000000
outer loop
vertex 8.500001 1.000000 0.700000
vertex 8.500001 1.000000 1.000000
vertex 11.500001 1.000000 1.000000
endloop
endfacet
facet normal 0.000000 1.000000 0.000000
outer loop
vertex 8.500001 1.000000 0.700000
vertex 11.500001 1.000000 1.000000
vertex 11.500001 1.000000 0.700000
endloop
endfacet
facet normal 1.000000 -0.000001 0.000000
outer loop
vertex 11.500001 1.000000 0.700000
vertex 11.500001 1.000000 1.000000
vertex 11.500001 -1.000000 1.000000
endloop
endfacet
facet normal 1.000000 0.000000 0.000000
outer loop
vertex 11.500001 1.000000 0.700000
vertex 11.500001 -1.000000 1.000000
vertex 11.500001 -1.000000 0.700000
endloop
endfacet
facet normal 0.000000 -1.000000 0.000000
outer loop
vertex 11.500001 -1.000000 0.700000
vertex 11.500001 -1.000000 1.000000
vertex 8.500001 -1.000000 1.000000
endloop
endfacet
facet normal 0.000000 -1.000000 0.000000
outer loop
vertex 11.500001 -1.000000 0.700000
vertex 8.500001 -1.000000 1.000000
vertex 8.500001 -1.000000 0.700000
endloop
endfacet
facet normal 0.000000 0.000000 -1.000000
outer loop
vertex 8.500001 1.000000 0.700000
vertex 11.500001 1.000000 0.700000
vertex 11.500001 -1.000000 0.700000
endloop
endfacet
facet normal 0.000000 0.000000 -1.000000
outer loop
vertex 8.500001 1.000000 0.700000
vertex 11.500001 -1.000000 0.700000
vertex 8.500001 -1.000000 0.700000
endloop
endfacet
facet normal 0.000000 0.000000 1.000000
outer loop
vertex 11.500001 -1.000000 1.000000
vertex 11.500001 1.000000 1.000000
vertex 11.400001 0.900000 1.000000
endloop
endfacet
facet normal 0.000000 0.000000 1.000000
outer loop
vertex 11.400001 -0.900000 1.000000
vertex 8.600000 -0.900000 1.000000
vertex 8.500001 -1.000000 1.000000
endloop
endfacet
facet normal 0.000000 0.000000 1.000000
outer loop
vertex 11.500001 -1.000000 1.000000
vertex 11.400001 0.900000 1.000000
vertex 11.400001 -0.900000 1.000000
endloop
endfacet
facet normal 0.000000 0.000000 1.000000
outer loop
vertex 11.400001 -0.900000 1.000000
vertex 8.500001 -1.000000 1.000000
vertex 11.500001 -1.000000 1.000000
endloop
endfacet
facet normal -0.000000 0.000000 1.000000
outer loop
vertex 8.500001 1.000000 1.000000
vertex 8.500001 -1.000000 1.000000
vertex 8.600000 -0.900000 1.000000
endloop
endfacet
facet normal 0.000000 0.000000 1.000000
outer loop
vertex 8.600000 0.900000 1.000000
vertex 11.400001 0.900000 1.000000
vertex 11.500001 1.000000 1.000000
endloop
endfacet
facet normal 0.000000 0.000000 1.000000
outer loop
vertex 8.500001 1.000000 1.000000
vertex 8.600000 -0.900000 1.000000
vertex 8.600000 0.900000 1.000000
endloop
endfacet
facet normal 0.000000 0.000000 1.000000
outer loop
vertex 8.600000 0.900000 1.000000
vertex 11.500001 1.000000 1.000000
vertex 8.500001 1.000000 1.000000
endloop
endfacet
facet normal -1.000000 0.000000 0.000000
outer loop
vertex 11.400001 -1.000000 0.700000
vertex 11.400001 -1.000000 1.300000
vertex 11.400001 1.000000 1.300000
endloop
endfacet
facet normal -1.000000 0.000000 0.000000
outer loop
vertex 11.400001 -1.000000 0.700000
vertex 11.400001 1.000000 1.300000
vertex 11.400001 1.000000 0.700000
endloop
endfacet
facet normal 0.000000 1.000000 0.000000
outer loop
vertex 11.400001 1.000000 0.700000
vertex 11.400001 1.000000 1.300000
vertex 11.500001 1.000000 1.300000
endloop
endfacet
facet normal 0.000000 1.000000 0.000000
outer loop
vertex 11.400001 1.000000 0.700000
vertex 11.500001 1.000000 1.300000
vertex 11.500001 1.000000 0.700000
endloop
endfacet
facet normal 1.000000 0.000000 0.000000
outer loop
vertex 11.500001 1.000000 0.700000
vertex 11.500001 1.000000 1.300000
vertex 11.500001 -1.000000 1.300000
endloop
endfacet
facet normal 1.000000 0.000000 0.000000
outer loop
vertex 11.500001 1.000000 0.700000
vertex 11.500001 -1.000000 1.300000
vertex 11.500001 -1.000000 0.700000
endloop
endfacet
facet normal 0.000000 -1.000000 0.000000
outer loop
vertex 11.500001 -1.000000 0.700000
vertex 11.500001 -1.000000 1.300000
vertex 11.400001 -1.000000 1.300000
endloop
endfacet
facet normal 0.000000 -1.000000 0.000000
outer loop
vertex 11.500001 -1.000000 0.700000
vertex 11.400001 -1.000000 1.300000
vertex 11.400001 -1.000000 0.700000
endloop
endfacet
facet normal 0.000000 0.000000 -1.000000
outer loop
vertex 11.400001 1.000000 0.700000
vertex 11.500001 1.000000 0.700000
vertex 11.500001 -1.000000 0.700000
endloop
endfacet
facet normal 0.000000 0.000000 -1.000000
outer loop
vertex 11.400001 1.000000 0.700000
vertex 11.500001 -1.000000 0.700000
vertex 11.400001 -1.000000 0.700000
endloop
endfacet
facet normal 0.000000 0.000000 1.000000
outer loop
vertex 11.500001 1.000000 1.300000
vertex 11.400001 1.000000 1.300000
vertex 11.400001 -1.000000 1.300000
endloop
endfacet
facet normal 0.000000 0.000000 1.000000
outer loop
vertex 11.500001 1.000000 1.300000
vertex 11.400001 -1.000000 1.300000
vertex 11.500001 -1.000000 1.300000
endloop
endfacet
endsolid Exported from Blender-2.83.9
