solid Exported from Blender-2.83.9
facet normal 1.000000 0.000000 0.000000
outer loop
vertex 8.500000 1.000000 0.700000
vertex 8.500000 1.000000 1.000000
vertex 8.500000 -1.000000 1.000000
endloop
endfacet
facet normal 1.000000 0.000000 0.000000
outer loop
vertex 8.500000 1.000000 0.700000
vertex 8.500000 -1.000000 1.000000
vertex 8.500000 -1.000000 0.700000
endloop
endfacet
facet normal 0.000000 1.000000 0.000000
outer loop
vertex 8.500000 1.000000 0.700000
vertex 7.980385 1.000000 0.700000
vertex 8.500000 1.000000 1.000000
endloop
endfacet
facet normal 0.000000 0.000000 -1.000000
outer loop
vertex 7.980385 1.000000 0.700000
vertex 8.500000 1.000000 0.700000
vertex 8.500000 -1.000000 0.700000
endloop
endfacet
facet normal 0.000000 0.000000 -1.000000
outer loop
vertex 7.980385 1.000000 0.700000
vertex 8.500000 -1.000000 0.700000
vertex 7.980385 -1.000000 0.700000
endloop
endfacet
facet normal -0.500000 0.000000 0.866025
outer loop
vertex 8.500000 1.000000 1.000000
vertex 7.980385 1.000000 0.700000
vertex 7.980385 -1.000000 0.700000
endloop
endfacet
facet normal -0.500000 0.000000 0.866025
outer loop
vertex 8.500000 1.000000 1.000000
vertex 7.980385 -1.000000 0.700000
vertex 8.500000 -1.000000 1.000000
endloop
endfacet
facet normal 0.000000 -1.000000 0.000000
outer loop
vertex 8.500000 -1.000000 1.000000
vertex 7.980385 -1.000000 0.700000
vertex 8.500000 -1.000000 0.700000
endloop
endfacet
facet normal 1.000000 0.000000 0.000000
outer loop
vertex 8.600000 -0.900000 0.800000
vertex 8.600000 0.900000 0.800000
vertex 8.600000 0.900000 1.000000
endloop
endfacet
facet normal 1.000000 0.000000 0.000000
outer loop
vertex 8.600000 -0.900000 0.800000
vertex 8.600000 0.900000 1.000000
vertex 8.600000 -0.900000 1.000000
endloop
endfacet
facet normal 0.000000 -1.000000 0.000000
outer loop
vertex 8.600000 0.900000 0.800000
vertex 11.400001 0.900000 0.800000
vertex 11.400001 0.900000 1.000000
endloop
endfacet
facet normal 0.000000 -1.000000 0.000000
outer loop
vertex 8.600000 0.900000 0.800000
vertex 11.400001 0.900000 1.000000
vertex 8.600000 0.900000 1.000000
endloop
endfacet
facet normal -1.000000 0.000000 0.000000
outer loop
vertex 11.400001 0.900000 0.800000
vertex 11.400001 -0.900000 0.800000
vertex 11.400001 -0.900000 1.000000
endloop
endfacet
facet normal -1.000000 0.000000 0.000000
outer loop
vertex 11.400001 0.900000 0.800000
vertex 11.400001 -0.900000 1.000000
vertex 11.400001 0.900000 1.000000
endloop
endfacet
facet normal 0.000000 1.000000 0.000000
outer loop
vertex 11.400001 -0.900000 0.800000
vertex 8.600000 -0.900000 0.800000
vertex 8.600000 -0.900000 1.000000
endloop
endfacet
facet normal 0.000000 1.000000 0.000000
outer loop
vertex 11.400001 -0.900000 0.800000
vertex 8.600000 -0.900000 1.000000
vertex 11.400001 -0.900000 1.000000
endloop
endfacet
facet normal 0.000000 0.000000 1.000000
outer loop
vertex 8.600000 0.900000 0.800000
vertex 8.600000 -0.900000 0.800000
vertex 11.400001 -0.900000 0.800000
endloop
endfacet
facet normal 0.000000 0.000000 1.000000
outer loop
vertex 8.600000 0.900000 0.800000
vertex 11.400001 -0.900000 0.800000
vertex 11.400001 0.900000 0.800000
endloop
endfacet
facet normal -1.000000 0.000000 0.000000
outer loop
vertex 8.500000 -1.000000 0.700000
vertex 8.500000 -1.000000 1.000000
vertex 8.500000 1.000000 1.000000
endloop
endfacet
facet normal -1.000000 0.000000 0.000000
outer loop
vertex 8.500000 -1.000000 0.700000
vertex 8.500000 1.000000 1.000000
vertex 8.500000 1.000000 0.700000
endloop
endfacet
facet normal 0.000000 1.000000 0.000000
outer loop
vertex 8.500000 1.000000 0.700000
vertex 8.500000 1.000000 1.000000
vertex 11.500000 1.000000 1.000000
endloop
endfacet
facet normal 0.000000 1.000000 0.000000
outer loop
vertex 8.500000 1.000000 0.700000
vertex 11.500000 1.000000 1.000000
vertex 11.500000 1.000000 0.700000
endloop
endfacet
facet normal 1.000000 0.000000 0.000000
outer loop
vertex 11.500000 1.000000 0.700000
vertex 11.500000 1.000000 1.000000
vertex 11.500000 -1.000000 1.000000
endloop
endfacet
facet normal 1.000000 0.000000 0.000000
outer loop
vertex 11.500000 1.000000 0.700000
vertex 11.500000 -1.000000 1.000000
vertex 11.500000 -1.000000 0.700000
endloop
endfacet
facet normal 0.000000 -1.000000 0.000000
outer loop
vertex 11.500000 -1.000000 0.700000
vertex 11.500000 -1.000000 1.000000
vertex 8.500000 -1.000000 1.000000
endloop
endfacet
facet normal 0.000000 -1.000000 0.000000
outer loop
vertex 11.500000 -1.000000 0.700000
vertex 8.500000 -1.000000 1.000000
vertex 8.500000 -1.000000 0.700000
endloop
endfacet
facet normal 0.000000 0.000000 -1.000000
outer loop
vertex 8.500000 1.000000 0.700000
vertex 11.500000 1.000000 0.700000
vertex 11.500000 -1.000000 0.700000
endloop
endfacet
facet normal 0.000000 0.000000 -1.000000
outer loop
vertex 8.500000 1.000000 0.700000
vertex 11.500000 -1.000000 0.700000
vertex 8.500000 -1.000000 0.700000
endloop
endfacet
facet normal 0.000000 0.000000 1.000000
outer loop
vertex 11.500000 -1.000000 1.000000
vertex 11.500000 1.000000 1.000000
vertex 11.400001 0.900000 1.000000
endloop
endfacet
facet normal 0.000000 0.000000 1.000000
outer loop
vertex 11.400001 -0.900000 1.000000
vertex 8.600000 -0.900000 1.000000
vertex 8.500000 -1.000000 1.000000
endloop
endfacet
facet normal 0.000000 0.000000 1.000000
outer loop
vertex 11.500000 -1.000000 1.000000
vertex 11.400001 0.900000 1.000000
vertex 11.400001 -0.900000 1.000000
endloop
endfacet
facet normal 0.000000 0.000000 1.000000
outer loop
vertex 11.400001 -0.900000 1.000000
vertex 8.500000 -1.000000 1.000000
vertex 11.500000 -1.000000 1.000000
endloop
endfacet
facet normal 0.000000 0.000000 1.000000
outer loop
vertex 8.500000 1.000000 1.000000
vertex 8.500000 -1.000000 1.000000
vertex 8.600000 -0.900000 1.000000
endloop
endfacet
facet normal 0.000000 0.000000 1.000000
outer loop
vertex 8.600000 0.900000 1.000000
vertex 11.400001 0.900000 1.000000
vertex 11.500000 1.000000 1.000000
endloop
endfacet
facet normal 0.000000 0.000000 1.000000
outer loop
vertex 8.500000 1.000000 1.000000
vertex 8.600000 -0.900000 1.000000
vertex 8.600000 0.900000 1.000000
endloop
endfacet
facet normal 0.000000 0.000000 1.000000
outer loop
vertex 8.600000 0.900000 1.000000
vertex 11.500000 1.000000 1.000000
vertex 8.500000 1.000000 1.000000
endloop
endfacet
facet normal -1.000000 0.000000 0.000000
outer loop
vertex 11.400001 -1.000000 0.700000
vertex 11.400001 -1.000000 1.300000
vertex 11.400001 1.000000 1.300000
endloop
endfacet
facet normal -1.000000 0.000000 0.000000
outer loop
vertex 11.400001 -1.000000 0.700000
vertex 11.400001 1.000000 1.300000
vertex 11.400001 1.000000 0.700000
endloop
endfacet
facet normal 0.000000 1.000000 0.000000
outer loop
vertex 11.400001 1.000000 0.700000
vertex 11.400001 1.000000 1.300000
vertex 11.500000 1.000000 1.300000
endloop
endfacet
facet normal 0.000000 1.000000 0.000000
outer loop
vertex 11.400001 1.000000 0.700000
vertex 11.500000 1.000000 1.300000
vertex 11.500000 1.000000 0.700000
endloop
endfacet
facet normal 1.000000 0.000000 0.000000
outer loop
vertex 11.500000 1.000000 0.700000
vertex 11.500000 1.000000 1.300000
vertex 11.500000 -1.000000 1.300000
endloop
endfacet
facet normal 1.000000 0.000000 0.000000
outer loop
vertex 11.500000 1.000000 0.700000
vertex 11.500000 -1.000000 1.300000
vertex 11.500000 -1.000000 0.700000
endloop
endfacet
facet normal 0.000000 -1.000000 0.000000
outer loop
vertex 11.500000 -1.000000 0.700000
vertex 11.500000 -1.000000 1.300000
vertex 11.400001 -1.000000 1.300000
endloop
endfacet
facet normal 0.000000 -1.000000 0.000000
outer loop
vertex 11.500000 -1.000000 0.700000
vertex 11.400001 -1.000000 1.300000
vertex 11.400001 -1.000000 0.700000
endloop
endfacet
facet normal 0.000000 0.000000 -1.000000
outer loop
vertex 11.400001 1.000000 0.700000
vertex 11.500000 1.000000 0.700000
vertex 11.500000 -1.000000 0.700000
endloop
endfacet
facet normal 0.000000 0.000000 -1.000000
outer loop
vertex 11.400001 1.000000 0.700000
vertex 11.500000 -1.000000 0.700000
vertex 11.400001 -1.000000 0.700000
endloop
endfacet
facet normal 0.000000 0.000000 1.000000
outer loop
vertex 11.500000 1.000000 1.300000
vertex 11.400001 1.000000 1.300000
vertex 11.400001 -1.000000 1.300000
endloop
endfacet
facet normal 0.000000 0.000000 1.000000
outer loop
vertex 11.500000 1.000000 1.300000
vertex 11.400001 -1.000000 1.300000
vertex 11.500000 -1.000000 1.300000
endloop
endfacet
endsolid Exported from Blender-2.83.9
