solid Exported from Blender-2.83.9
facet normal -0.029105 0.000000 0.999576
outer loop
vertex 8.500000 0.971558 1.000000
vertex 8.500000 1.000000 1.000000
vertex 8.442250 1.000000 0.998319
endloop
endfacet
facet normal -0.029104 0.000000 0.999576
outer loop
vertex 8.442250 1.000000 0.998319
vertex 8.442250 -1.000000 0.998319
vertex 8.500000 -1.000000 1.000000
endloop
endfacet
facet normal -0.029105 0.000000 0.999576
outer loop
vertex 8.442250 1.000000 0.998319
vertex 8.500000 -1.000000 1.000000
vertex 8.500000 0.971558 1.000000
endloop
endfacet
facet normal 0.088349 0.000000 -0.996090
outer loop
vertex 8.385155 1.000000 0.993254
vertex 8.442250 1.000000 0.998319
vertex 8.442250 -1.000000 0.998319
endloop
endfacet
facet normal 0.088347 0.000000 -0.996090
outer loop
vertex 8.385155 1.000000 0.993254
vertex 8.442250 -1.000000 0.998319
vertex 8.385154 -1.000000 0.993254
endloop
endfacet
facet normal 0.262174 0.000000 -0.965020
outer loop
vertex 8.336960 1.000000 0.980161
vertex 8.385155 1.000000 0.993254
vertex 8.385154 -1.000000 0.993254
endloop
endfacet
facet normal 0.262177 0.000000 -0.965020
outer loop
vertex 8.336960 1.000000 0.980161
vertex 8.385154 -1.000000 0.993254
vertex 8.336960 -1.000000 0.980161
endloop
endfacet
facet normal -0.339062 0.000000 0.940764
outer loop
vertex 8.336960 1.000000 0.980161
vertex 8.280078 1.000000 0.959660
vertex 8.280078 -1.000000 0.959660
endloop
endfacet
facet normal -0.339064 0.000000 0.940763
outer loop
vertex 8.336960 1.000000 0.980161
vertex 8.280078 -1.000000 0.959660
vertex 8.336960 -1.000000 0.980161
endloop
endfacet
facet normal 0.414792 0.000000 -0.909916
outer loop
vertex 8.225273 1.000000 0.934677
vertex 8.280078 1.000000 0.959660
vertex 8.280078 -1.000000 0.959660
endloop
endfacet
facet normal 0.414790 0.000000 -0.909917
outer loop
vertex 8.225273 1.000000 0.934677
vertex 8.280078 -1.000000 0.959660
vertex 8.225273 -1.000000 0.934677
endloop
endfacet
facet normal 0.487833 0.000000 -0.872937
outer loop
vertex 8.188366 1.000000 0.914052
vertex 8.225273 1.000000 0.934677
vertex 8.225273 -1.000000 0.934677
endloop
endfacet
facet normal 0.487835 0.000000 -0.872936
outer loop
vertex 8.188366 1.000000 0.914052
vertex 8.225273 -1.000000 0.934677
vertex 8.188366 -1.000000 0.914052
endloop
endfacet
facet normal -0.605406 0.000000 0.795916
outer loop
vertex 8.188366 1.000000 0.914052
vertex 8.154454 1.000000 0.888257
vertex 8.154454 -1.000000 0.888257
endloop
endfacet
facet normal -0.605408 0.000000 0.795915
outer loop
vertex 8.188366 1.000000 0.914052
vertex 8.154454 -1.000000 0.888257
vertex 8.188366 -1.000000 0.914052
endloop
endfacet
facet normal -0.667734 0.000000 0.744400
outer loop
vertex 8.154454 1.000000 0.888257
vertex 8.120353 1.000000 0.857668
vertex 8.120353 -1.000000 0.857668
endloop
endfacet
facet normal -0.667734 0.000000 0.744400
outer loop
vertex 8.154454 1.000000 0.888257
vertex 8.120353 -1.000000 0.857668
vertex 8.154454 -1.000000 0.888257
endloop
endfacet
facet normal 0.726749 0.000000 -0.686903
outer loop
vertex 8.089077 1.000000 0.824578
vertex 8.120353 1.000000 0.857668
vertex 8.120353 -1.000000 0.857668
endloop
endfacet
facet normal 0.726749 0.000000 -0.686903
outer loop
vertex 8.089077 1.000000 0.824578
vertex 8.120353 -1.000000 0.857668
vertex 8.089077 -1.000000 0.824578
endloop
endfacet
facet normal 0.781092 0.000000 -0.624416
outer loop
vertex 8.071479 1.000000 0.802564
vertex 8.089077 1.000000 0.824578
vertex 8.089077 -1.000000 0.824578
endloop
endfacet
facet normal 0.781092 0.000000 -0.624416
outer loop
vertex 8.071479 1.000000 0.802564
vertex 8.089077 -1.000000 0.824578
vertex 8.071479 -1.000000 0.802564
endloop
endfacet
facet normal -0.855169 0.000000 0.518350
outer loop
vertex 8.071479 1.000000 0.802564
vertex 8.056447 1.000000 0.777765
vertex 8.056447 -1.000000 0.777765
endloop
endfacet
facet normal -0.855168 0.000000 0.518352
outer loop
vertex 8.071479 1.000000 0.802564
vertex 8.056447 -1.000000 0.777765
vertex 8.071479 -1.000000 0.802564
endloop
endfacet
facet normal 0.906433 0.000000 -0.422351
outer loop
vertex 8.040684 1.000000 0.743934
vertex 8.056447 1.000000 0.777765
vertex 8.056447 -1.000000 0.777765
endloop
endfacet
facet normal 0.906433 0.000000 -0.422351
outer loop
vertex 8.040684 1.000000 0.743934
vertex 8.056447 -1.000000 0.777765
vertex 8.040684 -1.000000 0.743934
endloop
endfacet
facet normal 0.915981 0.000000 -0.401222
outer loop
vertex 8.035923 1.000000 0.733065
vertex 8.040684 1.000000 0.743934
vertex 8.040684 -1.000000 0.743934
endloop
endfacet
facet normal 0.915981 0.000000 -0.401222
outer loop
vertex 8.035923 1.000000 0.733065
vertex 8.040684 -1.000000 0.743934
vertex 8.035923 -1.000000 0.733065
endloop
endfacet
facet normal 0.951572 0.000000 -0.307427
outer loop
vertex 8.032895 1.000000 0.723693
vertex 8.035923 1.000000 0.733065
vertex 8.035923 -1.000000 0.733065
endloop
endfacet
facet normal 0.951572 0.000000 -0.307427
outer loop
vertex 8.032895 1.000000 0.723693
vertex 8.035923 -1.000000 0.733065
vertex 8.032895 -1.000000 0.723693
endloop
endfacet
facet normal -0.974470 0.000000 0.224517
outer loop
vertex 8.032895 1.000000 0.723693
vertex 8.030298 1.000000 0.712422
vertex 8.030298 -1.000000 0.712422
endloop
endfacet
facet normal -0.974471 0.000000 0.224515
outer loop
vertex 8.032895 1.000000 0.723693
vertex 8.030298 -1.000000 0.712422
vertex 8.032895 -1.000000 0.723693
endloop
endfacet
facet normal 0.994585 0.000000 -0.103923
outer loop
vertex 8.029000 1.000000 0.700000
vertex 8.030298 1.000000 0.712422
vertex 8.030298 -1.000000 0.712422
endloop
endfacet
facet normal 0.994585 0.000000 -0.103924
outer loop
vertex 8.029000 1.000000 0.700000
vertex 8.030298 -1.000000 0.712422
vertex 8.029000 -1.000000 0.700000
endloop
endfacet
facet normal 1.000000 0.000000 0.000000
outer loop
vertex 8.500000 -1.000000 0.700000
vertex 8.500000 1.000000 0.700000
vertex 8.500000 1.000000 1.000000
endloop
endfacet
facet normal 1.000000 0.000000 0.000000
outer loop
vertex 8.500000 0.971558 1.000000
vertex 8.500000 -1.000000 1.000000
vertex 8.500000 -1.000000 0.700000
endloop
endfacet
facet normal 1.000000 0.000000 0.000000
outer loop
vertex 8.500000 1.000000 1.000000
vertex 8.500000 0.971558 1.000000
vertex 8.500000 -1.000000 0.700000
endloop
endfacet
facet normal 0.000000 0.000000 1.000000
outer loop
vertex 8.029000 1.000000 0.700000
vertex 8.029000 -1.000000 0.700000
vertex 8.500000 -1.000000 0.700000
endloop
endfacet
facet normal 0.000000 0.000000 1.000000
outer loop
vertex 8.029000 1.000000 0.700000
vertex 8.500000 -1.000000 0.700000
vertex 8.500000 1.000000 0.700000
endloop
endfacet
facet normal 0.000000 -1.000000 0.000000
outer loop
vertex 8.500000 1.000000 0.700000
vertex 8.500000 1.000000 1.000000
vertex 8.442250 1.000000 0.998319
endloop
endfacet
facet normal 0.000000 -1.000000 0.000000
outer loop
vertex 8.032895 1.000000 0.723693
vertex 8.030298 1.000000 0.712422
vertex 8.029000 1.000000 0.700000
endloop
endfacet
facet normal 0.000000 -1.000000 0.000000
outer loop
vertex 8.089077 1.000000 0.824578
vertex 8.071479 1.000000 0.802564
vertex 8.056447 1.000000 0.777765
endloop
endfacet
facet normal 0.000000 -1.000000 0.000000
outer loop
vertex 8.029000 1.000000 0.700000
vertex 8.040684 1.000000 0.743934
vertex 8.032895 1.000000 0.723693
endloop
endfacet
facet normal 0.000000 1.000000 0.000000
outer loop
vertex 8.030298 -1.000000 0.712422
vertex 8.032895 -1.000000 0.723693
vertex 8.029000 -1.000000 0.700000
endloop
endfacet
facet normal 0.000000 -1.000000 0.000000
outer loop
vertex 8.040684 1.000000 0.743934
vertex 8.029000 1.000000 0.700000
vertex 8.056447 1.000000 0.777765
endloop
endfacet
facet normal 0.000000 -1.000000 0.000000
outer loop
vertex 8.500000 1.000000 0.700000
vertex 8.089077 1.000000 0.824578
vertex 8.056447 1.000000 0.777765
endloop
endfacet
facet normal 0.000000 -1.000000 0.000000
outer loop
vertex 8.029000 1.000000 0.700000
vertex 8.500000 1.000000 0.700000
vertex 8.056447 1.000000 0.777765
endloop
endfacet
facet normal 0.000000 -1.000000 0.000000
outer loop
vertex 8.089077 1.000000 0.824578
vertex 8.500000 1.000000 0.700000
vertex 8.120353 1.000000 0.857668
endloop
endfacet
facet normal 0.000000 -1.000000 0.000000
outer loop
vertex 8.120353 1.000000 0.857668
vertex 8.500000 1.000000 0.700000
vertex 8.154454 1.000000 0.888257
endloop
endfacet
facet normal 0.000000 -1.000000 0.000000
outer loop
vertex 8.154454 1.000000 0.888257
vertex 8.500000 1.000000 0.700000
vertex 8.188366 1.000000 0.914052
endloop
endfacet
facet normal 0.000000 -1.000000 0.000000
outer loop
vertex 8.188366 1.000000 0.914052
vertex 8.500000 1.000000 0.700000
vertex 8.225273 1.000000 0.934677
endloop
endfacet
facet normal 0.000000 -1.000000 0.000000
outer loop
vertex 8.225273 1.000000 0.934677
vertex 8.500000 1.000000 0.700000
vertex 8.280078 1.000000 0.959660
endloop
endfacet
facet normal 0.000000 -1.000000 0.000000
outer loop
vertex 8.280078 1.000000 0.959660
vertex 8.500000 1.000000 0.700000
vertex 8.336960 1.000000 0.980161
endloop
endfacet
facet normal 0.000000 -1.000000 0.000000
outer loop
vertex 8.336960 1.000000 0.980161
vertex 8.500000 1.000000 0.700000
vertex 8.385155 1.000000 0.993254
endloop
endfacet
facet normal 0.000000 -1.000000 0.000000
outer loop
vertex 8.385155 1.000000 0.993254
vertex 8.500000 1.000000 0.700000
vertex 8.442250 1.000000 0.998319
endloop
endfacet
facet normal 0.000000 -1.000000 0.000000
outer loop
vertex 8.040684 1.000000 0.743934
vertex 8.035923 1.000000 0.733065
vertex 8.032895 1.000000 0.723693
endloop
endfacet
facet normal 0.000000 1.000000 0.000000
outer loop
vertex 8.035923 -1.000000 0.733065
vertex 8.040684 -1.000000 0.743934
vertex 8.032895 -1.000000 0.723693
endloop
endfacet
facet normal 0.000000 1.000000 0.000000
outer loop
vertex 8.040684 -1.000000 0.743934
vertex 8.029000 -1.000000 0.700000
vertex 8.032895 -1.000000 0.723693
endloop
endfacet
facet normal 0.000000 1.000000 0.000000
outer loop
vertex 8.500000 -1.000000 0.700000
vertex 8.029000 -1.000000 0.700000
vertex 8.056447 -1.000000 0.777765
endloop
endfacet
facet normal 0.000000 1.000000 0.000000
outer loop
vertex 8.071479 -1.000000 0.802564
vertex 8.089077 -1.000000 0.824578
vertex 8.056447 -1.000000 0.777765
endloop
endfacet
facet normal 0.000000 1.000000 0.000000
outer loop
vertex 8.029000 -1.000000 0.700000
vertex 8.040684 -1.000000 0.743934
vertex 8.056447 -1.000000 0.777765
endloop
endfacet
facet normal 0.000000 1.000000 0.000000
outer loop
vertex 8.500000 -1.000000 0.700000
vertex 8.089077 -1.000000 0.824578
vertex 8.120353 -1.000000 0.857668
endloop
endfacet
facet normal 0.000000 1.000000 0.000000
outer loop
vertex 8.500000 -1.000000 0.700000
vertex 8.120353 -1.000000 0.857668
vertex 8.154454 -1.000000 0.888257
endloop
endfacet
facet normal 0.000000 1.000000 0.000000
outer loop
vertex 8.500000 -1.000000 0.700000
vertex 8.154454 -1.000000 0.888257
vertex 8.188366 -1.000000 0.914052
endloop
endfacet
facet normal 0.000000 1.000000 0.000000
outer loop
vertex 8.500000 -1.000000 0.700000
vertex 8.188366 -1.000000 0.914052
vertex 8.225273 -1.000000 0.934677
endloop
endfacet
facet normal 0.000000 1.000000 0.000000
outer loop
vertex 8.500000 -1.000000 0.700000
vertex 8.225273 -1.000000 0.934677
vertex 8.280078 -1.000000 0.959660
endloop
endfacet
facet normal 0.000000 1.000000 0.000000
outer loop
vertex 8.500000 -1.000000 0.700000
vertex 8.280078 -1.000000 0.959660
vertex 8.336960 -1.000000 0.980161
endloop
endfacet
facet normal 0.000000 1.000000 0.000000
outer loop
vertex 8.500000 -1.000000 0.700000
vertex 8.336960 -1.000000 0.980161
vertex 8.385154 -1.000000 0.993254
endloop
endfacet
facet normal 0.000000 1.000000 0.000000
outer loop
vertex 8.500000 -1.000000 0.700000
vertex 8.385154 -1.000000 0.993254
vertex 8.442250 -1.000000 0.998319
endloop
endfacet
facet normal 0.000000 1.000000 0.000000
outer loop
vertex 8.500000 -1.000000 1.000000
vertex 8.500000 -1.000000 0.700000
vertex 8.442250 -1.000000 0.998319
endloop
endfacet
facet normal 0.000000 1.000000 0.000000
outer loop
vertex 8.089077 -1.000000 0.824578
vertex 8.500000 -1.000000 0.700000
vertex 8.056447 -1.000000 0.777765
endloop
endfacet
facet normal 1.000000 0.000000 0.000000
outer loop
vertex 8.499999 1.000000 0.700000
vertex 8.499999 1.000000 1.000000
vertex 8.499999 -1.000000 1.000000
endloop
endfacet
facet normal 1.000000 0.000000 0.000000
outer loop
vertex 8.499999 1.000000 0.700000
vertex 8.499999 -1.000000 1.000000
vertex 8.499999 -1.000000 0.700000
endloop
endfacet
facet normal -1.000000 0.000000 0.000000
outer loop
vertex 8.499999 -1.000000 0.700000
vertex 8.499999 -1.000000 1.000000
vertex 8.499999 1.000000 1.000000
endloop
endfacet
facet normal -1.000000 0.000000 0.000000
outer loop
vertex 8.499999 -1.000000 0.700000
vertex 8.499999 1.000000 1.000000
vertex 8.499999 1.000000 0.700000
endloop
endfacet
facet normal 1.000000 0.000000 0.000000
outer loop
vertex 8.600000 -0.900000 0.800000
vertex 8.600000 0.900000 0.800000
vertex 8.600000 0.900000 1.000000
endloop
endfacet
facet normal 1.000000 0.000000 0.000000
outer loop
vertex 8.600000 -0.900000 0.800000
vertex 8.600000 0.900000 1.000000
vertex 8.600000 -0.900000 1.000000
endloop
endfacet
facet normal 0.000000 -1.000000 0.000000
outer loop
vertex 8.600000 0.900000 0.800000
vertex 11.400001 0.900000 0.800000
vertex 11.400001 0.900000 1.000000
endloop
endfacet
facet normal 0.000000 -1.000000 0.000000
outer loop
vertex 8.600000 0.900000 0.800000
vertex 11.400001 0.900000 1.000000
vertex 8.600000 0.900000 1.000000
endloop
endfacet
facet normal -1.000000 0.000000 0.000000
outer loop
vertex 11.400001 0.900000 0.800000
vertex 11.400001 -0.900000 0.800000
vertex 11.400001 -0.900000 1.000000
endloop
endfacet
facet normal -1.000000 0.000000 0.000000
outer loop
vertex 11.400001 0.900000 0.800000
vertex 11.400001 -0.900000 1.000000
vertex 11.400001 0.900000 1.000000
endloop
endfacet
facet normal -0.000000 1.000000 0.000000
outer loop
vertex 11.400001 -0.900000 0.800000
vertex 8.600000 -0.900000 0.800000
vertex 8.600000 -0.900000 1.000000
endloop
endfacet
facet normal -0.000000 1.000000 0.000000
outer loop
vertex 11.400001 -0.900000 0.800000
vertex 8.600000 -0.900000 1.000000
vertex 11.400001 -0.900000 1.000000
endloop
endfacet
facet normal 0.000000 0.000000 1.000000
outer loop
vertex 8.600000 0.900000 0.800000
vertex 8.600000 -0.900000 0.800000
vertex 11.400001 -0.900000 0.800000
endloop
endfacet
facet normal 0.000000 0.000000 1.000000
outer loop
vertex 8.600000 0.900000 0.800000
vertex 11.400001 -0.900000 0.800000
vertex 11.400001 0.900000 0.800000
endloop
endfacet
facet normal -1.000000 0.000000 0.000000
outer loop
vertex 8.500000 -1.000000 0.700000
vertex 8.500000 -1.000000 1.000000
vertex 8.500001 1.000000 1.000000
endloop
endfacet
facet normal -1.000000 0.000001 0.000000
outer loop
vertex 8.500000 -1.000000 0.700000
vertex 8.500001 1.000000 1.000000
vertex 8.500001 1.000000 0.700000
endloop
endfacet
facet normal -0.000000 1.000000 0.000000
outer loop
vertex 8.500001 1.000000 0.700000
vertex 8.500001 1.000000 1.000000
vertex 11.500000 1.000000 1.000000
endloop
endfacet
facet normal -0.000000 1.000000 0.000000
outer loop
vertex 8.500001 1.000000 0.700000
vertex 11.500000 1.000000 1.000000
vertex 11.500000 1.000000 0.700000
endloop
endfacet
facet normal 1.000000 0.000000 0.000000
outer loop
vertex 11.500000 1.000000 0.700000
vertex 11.500000 1.000000 1.000000
vertex 11.500000 -1.000000 1.000000
endloop
endfacet
facet normal 1.000000 0.000000 0.000000
outer loop
vertex 11.500000 1.000000 0.700000
vertex 11.500000 -1.000000 1.000000
vertex 11.500000 -1.000000 0.700000
endloop
endfacet
facet normal -0.000000 -1.000000 0.000000
outer loop
vertex 11.500000 -1.000000 0.700000
vertex 11.500000 -1.000000 1.000000
vertex 8.500000 -1.000000 1.000000
endloop
endfacet
facet normal -0.000000 -1.000000 0.000000
outer loop
vertex 11.500000 -1.000000 0.700000
vertex 8.500000 -1.000000 1.000000
vertex 8.500000 -1.000000 0.700000
endloop
endfacet
facet normal 0.000000 0.000000 -1.000000
outer loop
vertex 8.500001 1.000000 0.700000
vertex 11.500000 1.000000 0.700000
vertex 11.500000 -1.000000 0.700000
endloop
endfacet
facet normal 0.000000 0.000000 -1.000000
outer loop
vertex 8.500001 1.000000 0.700000
vertex 11.500000 -1.000000 0.700000
vertex 8.500000 -1.000000 0.700000
endloop
endfacet
facet normal 0.000001 0.000000 1.000000
outer loop
vertex 11.500000 -1.000000 1.000000
vertex 11.500000 1.000000 1.000000
vertex 11.400001 0.900000 1.000000
endloop
endfacet
facet normal 0.000000 0.000000 1.000000
outer loop
vertex 11.400001 -0.900000 1.000000
vertex 8.600000 -0.900000 1.000000
vertex 8.500000 -1.000000 1.000000
endloop
endfacet
facet normal 0.000000 0.000000 1.000000
outer loop
vertex 11.500000 -1.000000 1.000000
vertex 11.400001 0.900000 1.000000
vertex 11.400001 -0.900000 1.000000
endloop
endfacet
facet normal 0.000000 0.000000 1.000000
outer loop
vertex 11.400001 -0.900000 1.000000
vertex 8.500000 -1.000000 1.000000
vertex 11.500000 -1.000000 1.000000
endloop
endfacet
facet normal -0.000000 0.000000 1.000000
outer loop
vertex 8.500001 1.000000 1.000000
vertex 8.500000 -1.000000 1.000000
vertex 8.600000 -0.900000 1.000000
endloop
endfacet
facet normal 0.000000 0.000000 1.000000
outer loop
vertex 8.600000 0.900000 1.000000
vertex 11.400001 0.900000 1.000000
vertex 11.500000 1.000000 1.000000
endloop
endfacet
facet normal -0.000001 0.000000 1.000000
outer loop
vertex 8.500001 1.000000 1.000000
vertex 8.600000 -0.900000 1.000000
vertex 8.600000 0.900000 1.000000
endloop
endfacet
facet normal 0.000000 0.000000 1.000000
outer loop
vertex 8.600000 0.900000 1.000000
vertex 11.500000 1.000000 1.000000
vertex 8.500001 1.000000 1.000000
endloop
endfacet
facet normal -1.000000 0.000000 0.000000
outer loop
vertex 11.400001 -1.000000 0.700000
vertex 11.400001 -1.000000 1.300000
vertex 11.400001 1.000000 1.300000
endloop
endfacet
facet normal -1.000000 0.000000 0.000000
outer loop
vertex 11.400001 -1.000000 0.700000
vertex 11.400001 1.000000 1.300000
vertex 11.400001 1.000000 0.700000
endloop
endfacet
facet normal 0.000001 1.000000 0.000000
outer loop
vertex 11.400001 1.000000 0.700000
vertex 11.400001 1.000000 1.300000
vertex 11.500000 1.000000 1.300000
endloop
endfacet
facet normal 0.000001 1.000000 0.000000
outer loop
vertex 11.400001 1.000000 0.700000
vertex 11.500000 1.000000 1.300000
vertex 11.500000 1.000000 0.700000
endloop
endfacet
facet normal 1.000000 0.000000 0.000000
outer loop
vertex 11.500000 1.000000 0.700000
vertex 11.500000 1.000000 1.300000
vertex 11.500000 -1.000000 1.300000
endloop
endfacet
facet normal 1.000000 0.000000 0.000000
outer loop
vertex 11.500000 1.000000 0.700000
vertex 11.500000 -1.000000 1.300000
vertex 11.500000 -1.000000 0.700000
endloop
endfacet
facet normal 0.000000 -1.000000 0.000000
outer loop
vertex 11.500000 -1.000000 0.700000
vertex 11.500000 -1.000000 1.300000
vertex 11.400001 -1.000000 1.300000
endloop
endfacet
facet normal 0.000000 -1.000000 0.000000
outer loop
vertex 11.500000 -1.000000 0.700000
vertex 11.400001 -1.000000 1.300000
vertex 11.400001 -1.000000 0.700000
endloop
endfacet
facet normal 0.000000 0.000000 -1.000000
outer loop
vertex 11.400001 1.000000 0.700000
vertex 11.500000 1.000000 0.700000
vertex 11.500000 -1.000000 0.700000
endloop
endfacet
facet normal 0.000000 0.000000 -1.000000
outer loop
vertex 11.400001 1.000000 0.700000
vertex 11.500000 -1.000000 0.700000
vertex 11.400001 -1.000000 0.700000
endloop
endfacet
facet normal 0.000000 0.000000 1.000000
outer loop
vertex 11.500000 1.000000 1.300000
vertex 11.400001 1.000000 1.300000
vertex 11.400001 -1.000000 1.300000
endloop
endfacet
facet normal 0.000000 0.000000 1.000000
outer loop
vertex 11.500000 1.000000 1.300000
vertex 11.400001 -1.000000 1.300000
vertex 11.500000 -1.000000 1.300000
endloop
endfacet
endsolid Exported from Blender-2.83.9
