solid Exported from Blender-2.83.9
facet normal 0.000000 1.000000 0.000000
outer loop
vertex 8.499347 1.000000 1.000001
vertex 8.500000 1.000000 1.000001
vertex 8.500000 1.000000 0.700000
endloop
endfacet
facet normal 0.000000 1.000000 0.000000
outer loop
vertex 8.500000 1.000000 0.700000
vertex 8.028300 1.000000 0.700000
vertex 8.028300 1.000000 0.700121
endloop
endfacet
facet normal 0.000000 1.000000 0.000000
outer loop
vertex 8.028300 1.000000 0.700121
vertex 8.079139 1.000000 0.701601
vertex 8.085540 1.000000 0.701788
endloop
endfacet
facet normal 0.000000 1.000000 0.000000
outer loop
vertex 8.085540 1.000000 0.701788
vertex 8.136392 1.000000 0.706298
vertex 8.142721 1.000000 0.706859
endloop
endfacet
facet normal 0.000000 1.000000 0.000000
outer loop
vertex 8.500000 1.000000 0.700000
vertex 8.028300 1.000000 0.700121
vertex 8.085540 1.000000 0.701788
endloop
endfacet
facet normal 0.000000 1.000000 0.000000
outer loop
vertex 8.499261 1.000000 0.999173
vertex 8.499347 1.000000 1.000001
vertex 8.500000 1.000000 0.700000
endloop
endfacet
facet normal 0.000000 1.000000 0.000000
outer loop
vertex 8.498104 1.000000 0.988110
vertex 8.499261 1.000000 0.999173
vertex 8.500000 1.000000 0.700000
endloop
endfacet
facet normal 0.000000 1.000000 0.000000
outer loop
vertex 8.500000 1.000000 0.700000
vertex 8.085540 1.000000 0.701788
vertex 8.142721 1.000000 0.706859
endloop
endfacet
facet normal 0.000000 1.000000 0.000000
outer loop
vertex 8.500000 1.000000 0.700000
vertex 8.142721 1.000000 0.706859
vertex 8.185644 1.000000 0.718521
endloop
endfacet
facet normal 0.000000 1.000000 0.000000
outer loop
vertex 8.495791 1.000000 0.978071
vertex 8.498104 1.000000 0.988110
vertex 8.500000 1.000000 0.700000
endloop
endfacet
facet normal 0.000000 1.000000 0.000000
outer loop
vertex 8.495504 1.000000 0.976822
vertex 8.495791 1.000000 0.978071
vertex 8.500000 1.000000 0.700000
endloop
endfacet
facet normal 0.000000 1.000000 0.000000
outer loop
vertex 8.500000 1.000000 0.700000
vertex 8.185644 1.000000 0.718521
vertex 8.190987 1.000000 0.719972
endloop
endfacet
facet normal 0.000000 1.000000 0.000000
outer loop
vertex 8.500000 1.000000 0.700000
vertex 8.190987 1.000000 0.719972
vertex 8.197291 1.000000 0.722245
endloop
endfacet
facet normal 0.000000 1.000000 0.000000
outer loop
vertex 8.495169 1.000000 0.975783
vertex 8.495504 1.000000 0.976822
vertex 8.500000 1.000000 0.700000
endloop
endfacet
facet normal 0.000000 1.000000 0.000000
outer loop
vertex 8.492472 1.000000 0.967436
vertex 8.495169 1.000000 0.975783
vertex 8.500000 1.000000 0.700000
endloop
endfacet
facet normal 0.000000 1.000000 0.000000
outer loop
vertex 8.500000 1.000000 0.700000
vertex 8.197291 1.000000 0.722245
vertex 8.247953 1.000000 0.740504
endloop
endfacet
facet normal 0.000000 1.000000 0.000000
outer loop
vertex 8.500000 1.000000 0.700000
vertex 8.247953 1.000000 0.740504
vertex 8.296764 1.000000 0.762755
endloop
endfacet
facet normal 0.000000 1.000000 0.000000
outer loop
vertex 8.491943 1.000000 0.966231
vertex 8.492472 1.000000 0.967436
vertex 8.500000 1.000000 0.700000
endloop
endfacet
facet normal 0.000000 1.000000 0.000000
outer loop
vertex 8.487703 1.000000 0.956551
vertex 8.491943 1.000000 0.966231
vertex 8.500000 1.000000 0.700000
endloop
endfacet
facet normal 0.000000 1.000000 0.000000
outer loop
vertex 8.500000 1.000000 0.700000
vertex 8.296764 1.000000 0.762755
vertex 8.302839 1.000000 0.765524
endloop
endfacet
facet normal 0.000000 1.000000 0.000000
outer loop
vertex 8.500000 1.000000 0.700000
vertex 8.302839 1.000000 0.765524
vertex 8.335711 1.000000 0.783894
endloop
endfacet
facet normal 0.000000 1.000000 0.000000
outer loop
vertex 8.485956 1.000000 0.952801
vertex 8.487703 1.000000 0.956551
vertex 8.500000 1.000000 0.700000
endloop
endfacet
facet normal 0.000000 1.000000 0.000000
outer loop
vertex 8.471916 1.000000 0.922670
vertex 8.485956 1.000000 0.952801
vertex 8.500000 1.000000 0.700000
endloop
endfacet
facet normal 0.000000 1.000000 0.000000
outer loop
vertex 8.500000 1.000000 0.700000
vertex 8.335711 1.000000 0.783894
vertex 8.339802 1.000000 0.786180
endloop
endfacet
facet normal 0.000000 1.000000 0.000000
outer loop
vertex 8.339802 1.000000 0.786180
vertex 8.343561 1.000000 0.789039
vertex 8.373763 1.000000 0.812013
endloop
endfacet
facet normal 0.000000 -1.000000 0.000000
outer loop
vertex 8.373763 1.000000 0.812013
vertex 8.377543 1.000000 0.815404
vertex 8.407915 1.000000 0.842648
endloop
endfacet
facet normal 0.000000 -1.000000 0.000000
outer loop
vertex 8.407915 1.000000 0.842648
vertex 8.435772 1.000000 0.872119
vertex 8.439239 1.000000 0.875787
endloop
endfacet
facet normal 0.000000 1.000000 0.000000
outer loop
vertex 8.500000 1.000000 0.700000
vertex 8.339802 1.000000 0.786180
vertex 8.373763 1.000000 0.812013
endloop
endfacet
facet normal 0.000000 1.000000 0.000000
outer loop
vertex 8.458529 1.000000 0.900583
vertex 8.471916 1.000000 0.922670
vertex 8.500000 1.000000 0.700000
endloop
endfacet
facet normal 0.000000 1.000000 0.000000
outer loop
vertex 8.456862 1.000000 0.897834
vertex 8.458529 1.000000 0.900583
vertex 8.500000 1.000000 0.700000
endloop
endfacet
facet normal 0.000000 1.000000 0.000000
outer loop
vertex 8.500000 1.000000 0.700000
vertex 8.373763 1.000000 0.812013
vertex 8.407915 1.000000 0.842648
endloop
endfacet
facet normal 0.000000 1.000000 0.000000
outer loop
vertex 8.500000 1.000000 0.700000
vertex 8.407915 1.000000 0.842648
vertex 8.439239 1.000000 0.875787
endloop
endfacet
facet normal 0.000000 1.000000 0.000000
outer loop
vertex 8.454911 1.000000 0.895394
vertex 8.456862 1.000000 0.897834
vertex 8.500000 1.000000 0.700000
endloop
endfacet
facet normal 0.000000 1.000000 0.000000
outer loop
vertex 8.500000 1.000000 0.700000
vertex 8.439239 1.000000 0.875787
vertex 8.454911 1.000000 0.895394
endloop
endfacet
facet normal 1.000000 0.000000 0.000000
outer loop
vertex 8.500000 -1.000000 1.000001
vertex 8.500000 -1.000000 0.700000
vertex 8.500000 1.000000 0.700000
endloop
endfacet
facet normal 1.000000 0.000000 0.000000
outer loop
vertex 8.500000 -1.000000 1.000001
vertex 8.500000 1.000000 0.700000
vertex 8.500000 1.000000 1.000001
endloop
endfacet
facet normal 0.000000 0.000000 -1.000000
outer loop
vertex 8.028300 -1.000000 0.700000
vertex 8.028300 1.000000 0.700000
vertex 8.500000 1.000000 0.700000
endloop
endfacet
facet normal 0.000000 0.000000 -1.000000
outer loop
vertex 8.028300 -1.000000 0.700000
vertex 8.500000 1.000000 0.700000
vertex 8.500000 -1.000000 0.700000
endloop
endfacet
facet normal -0.339066 0.000000 0.940763
outer loop
vertex 8.190987 1.000000 0.719972
vertex 8.190987 -1.000000 0.719972
vertex 8.244763 -1.000000 0.739354
endloop
endfacet
facet normal -0.339071 0.000002 0.940761
outer loop
vertex 8.190987 1.000000 0.719972
vertex 8.244763 -1.000000 0.739354
vertex 8.197291 1.000000 0.722245
endloop
endfacet
facet normal 0.487806 0.000013 -0.872952
outer loop
vertex 8.335711 1.000000 0.783894
vertex 8.304909 -1.000000 0.766680
vertex 8.302839 -1.000000 0.765524
endloop
endfacet
facet normal 0.487822 0.000000 -0.872943
outer loop
vertex 8.335711 1.000000 0.783894
vertex 8.302839 -1.000000 0.765524
vertex 8.302839 1.000000 0.765524
endloop
endfacet
facet normal 0.414793 0.000000 -0.909916
outer loop
vertex 8.302839 1.000000 0.765524
vertex 8.302839 -1.000000 0.765524
vertex 8.251026 -1.000000 0.741905
endloop
endfacet
facet normal 0.414785 0.000000 -0.909920
outer loop
vertex 8.302839 1.000000 0.765524
vertex 8.251026 -1.000000 0.741905
vertex 8.296764 1.000000 0.762755
endloop
endfacet
facet normal 0.906430 0.000000 -0.422355
outer loop
vertex 8.487703 1.000000 0.956551
vertex 8.487703 -1.000000 0.956551
vertex 8.472800 -1.000000 0.924567
endloop
endfacet
facet normal 0.906442 0.000000 -0.422330
outer loop
vertex 8.487703 1.000000 0.956551
vertex 8.472800 -1.000000 0.924567
vertex 8.485956 1.000000 0.952801
endloop
endfacet
facet normal 0.262176 0.000000 -0.965020
outer loop
vertex 8.190987 1.000000 0.719972
vertex 8.190987 -1.000000 0.719972
vertex 8.145423 -1.000000 0.707594
endloop
endfacet
facet normal 0.262164 0.000003 -0.965023
outer loop
vertex 8.190987 1.000000 0.719972
vertex 8.145423 -1.000000 0.707594
vertex 8.185644 1.000000 0.718521
endloop
endfacet
facet normal -0.339012 -0.000005 0.940782
outer loop
vertex 8.197291 1.000000 0.722245
vertex 8.244763 -1.000000 0.739354
vertex 8.247953 -1.000000 0.740504
endloop
endfacet
facet normal -0.339060 0.000000 0.940765
outer loop
vertex 8.197291 1.000000 0.722245
vertex 8.247953 -1.000000 0.740504
vertex 8.247953 1.000000 0.740504
endloop
endfacet
facet normal 0.088348 0.000000 -0.996090
outer loop
vertex 8.142721 1.000000 0.706859
vertex 8.142721 -1.000000 0.706859
vertex 8.088741 -1.000000 0.702072
endloop
endfacet
facet normal 0.088323 0.000001 -0.996092
outer loop
vertex 8.142721 1.000000 0.706859
vertex 8.088741 -1.000000 0.702072
vertex 8.136392 1.000000 0.706298
endloop
endfacet
facet normal 0.994671 0.000003 -0.103104
outer loop
vertex 8.498177 -1.000000 0.988806
vertex 8.499261 1.000000 0.999173
vertex 8.499347 1.000000 1.000001
endloop
endfacet
facet normal 0.994581 0.000000 -0.103959
outer loop
vertex 8.498177 -1.000000 0.988806
vertex 8.499347 1.000000 1.000001
vertex 8.499347 -1.000000 1.000001
endloop
endfacet
facet normal -0.667736 0.000000 0.744398
outer loop
vertex 8.373763 1.000000 0.812013
vertex 8.373763 -1.000000 0.812013
vertex 8.406003 -1.000000 0.840933
endloop
endfacet
facet normal -0.667695 0.000000 0.744435
outer loop
vertex 8.373763 1.000000 0.812013
vertex 8.406003 -1.000000 0.840933
vertex 8.377543 1.000000 0.815404
endloop
endfacet
facet normal 0.915965 0.000000 -0.401258
outer loop
vertex 8.492472 1.000000 0.967436
vertex 8.492472 -1.000000 0.967436
vertex 8.487970 -1.000000 0.957160
endloop
endfacet
facet normal 0.915803 0.000000 -0.401627
outer loop
vertex 8.492472 1.000000 0.967436
vertex 8.487970 -1.000000 0.957160
vertex 8.491943 1.000000 0.966231
endloop
endfacet
facet normal -0.667733 -0.000004 0.744401
outer loop
vertex 8.377543 1.000000 0.815404
vertex 8.406003 -1.000000 0.840933
vertex 8.407915 -1.000000 0.842648
endloop
endfacet
facet normal -0.667741 0.000000 0.744393
outer loop
vertex 8.377543 1.000000 0.815404
vertex 8.407915 -1.000000 0.842648
vertex 8.407915 1.000000 0.842648
endloop
endfacet
facet normal 0.994630 0.000002 -0.103497
outer loop
vertex 8.499261 1.000000 0.999173
vertex 8.498177 -1.000000 0.988806
vertex 8.498104 -1.000000 0.988110
endloop
endfacet
facet normal 0.994578 0.000000 -0.103994
outer loop
vertex 8.499261 1.000000 0.999173
vertex 8.498104 -1.000000 0.988110
vertex 8.498104 1.000000 0.988110
endloop
endfacet
facet normal 0.088338 -0.000001 -0.996091
outer loop
vertex 8.136392 1.000000 0.706298
vertex 8.088741 -1.000000 0.702072
vertex 8.085540 -1.000000 0.701788
endloop
endfacet
facet normal 0.088350 0.000000 -0.996089
outer loop
vertex 8.136392 1.000000 0.706298
vertex 8.085540 -1.000000 0.701788
vertex 8.085540 1.000000 0.701788
endloop
endfacet
facet normal 0.726738 0.000000 -0.686915
outer loop
vertex 8.439239 1.000000 0.875787
vertex 8.439239 -1.000000 0.875787
vertex 8.409669 -1.000000 0.844503
endloop
endfacet
facet normal 0.726762 0.000003 -0.686890
outer loop
vertex 8.439239 1.000000 0.875787
vertex 8.409669 -1.000000 0.844503
vertex 8.435772 1.000000 0.872119
endloop
endfacet
facet normal -0.029106 0.000000 0.999576
outer loop
vertex 8.030943 -1.000000 0.700198
vertex 8.079139 1.000000 0.701601
vertex 8.028300 1.000000 0.700121
endloop
endfacet
facet normal -0.029084 0.000000 0.999577
outer loop
vertex 8.030943 -1.000000 0.700198
vertex 8.028300 1.000000 0.700121
vertex 8.028300 -1.000000 0.700121
endloop
endfacet
facet normal 0.487831 0.000000 -0.872938
outer loop
vertex 8.339802 1.000000 0.786180
vertex 8.339802 -1.000000 0.786180
vertex 8.304909 -1.000000 0.766680
endloop
endfacet
facet normal 0.487892 -0.000003 -0.872904
outer loop
vertex 8.339802 1.000000 0.786180
vertex 8.304909 -1.000000 0.766680
vertex 8.335711 1.000000 0.783894
endloop
endfacet
facet normal 0.951592 -0.000001 -0.307365
outer loop
vertex 8.495504 1.000000 0.976822
vertex 8.495503 -1.000000 0.976822
vertex 8.492641 -1.000000 0.967961
endloop
endfacet
facet normal 0.951548 0.000000 -0.307500
outer loop
vertex 8.495504 1.000000 0.976822
vertex 8.492641 -1.000000 0.967961
vertex 8.495169 1.000000 0.975783
endloop
endfacet
facet normal -0.974478 0.000000 0.224484
outer loop
vertex 8.495504 1.000000 0.976822
vertex 8.495503 -1.000000 0.976822
vertex 8.497958 -1.000000 0.987478
endloop
endfacet
facet normal -0.974609 0.000000 0.223915
outer loop
vertex 8.495504 1.000000 0.976822
vertex 8.497958 -1.000000 0.987478
vertex 8.495791 1.000000 0.978071
endloop
endfacet
facet normal 0.915926 0.000001 -0.401348
outer loop
vertex 8.491943 1.000000 0.966231
vertex 8.487970 -1.000000 0.957160
vertex 8.487703 -1.000000 0.956551
endloop
endfacet
facet normal 0.915985 0.000000 -0.401213
outer loop
vertex 8.491943 1.000000 0.966231
vertex 8.487703 -1.000000 0.956551
vertex 8.487703 1.000000 0.956551
endloop
endfacet
facet normal 0.000000 -1.000000 -0.000032
outer loop
vertex 8.500000 -1.000000 1.000001
vertex 8.499347 -1.000000 1.000001
vertex 8.498177 -1.000000 0.988806
endloop
endfacet
facet normal -0.002907 -0.999996 0.000539
outer loop
vertex 8.500000 -1.000000 1.000001
vertex 8.498177 -1.000000 0.988806
vertex 8.498104 -1.000000 0.988110
endloop
endfacet
facet normal 0.000000 -1.000000 0.000000
outer loop
vertex 8.028300 -1.000000 0.700121
vertex 8.028300 -1.000000 0.700000
vertex 8.500000 -1.000000 0.700000
endloop
endfacet
facet normal 0.026822 -0.148287 -0.988581
outer loop
vertex 8.085540 -1.000000 0.701788
vertex 8.030943 -1.000000 0.700198
vertex 8.028300 -1.000000 0.700121
endloop
endfacet
facet normal -0.074138 0.228409 0.970738
outer loop
vertex 8.142721 -1.000000 0.706859
vertex 8.088741 -1.000000 0.702072
vertex 8.085540 -1.000000 0.701788
endloop
endfacet
facet normal -0.000000 -1.000000 -0.000075
outer loop
vertex 8.085540 -1.000000 0.701788
vertex 8.028300 -1.000000 0.700121
vertex 8.500000 -1.000000 0.700000
endloop
endfacet
facet normal 0.000063 -1.000000 0.000000
outer loop
vertex 8.500000 -1.000000 0.700000
vertex 8.500000 -1.000000 1.000001
vertex 8.498104 -1.000000 0.988110
endloop
endfacet
facet normal 0.000002 -1.000000 -0.000005
outer loop
vertex 8.500000 -1.000000 0.700000
vertex 8.498104 -1.000000 0.988110
vertex 8.497958 -1.000000 0.987478
endloop
endfacet
facet normal 0.000000 -1.000000 0.000000
outer loop
vertex 8.142721 -1.000000 0.706859
vertex 8.085540 -1.000000 0.701788
vertex 8.500000 -1.000000 0.700000
endloop
endfacet
facet normal 0.000003 -1.000000 0.000000
outer loop
vertex 8.145423 -1.000000 0.707594
vertex 8.142721 -1.000000 0.706859
vertex 8.500000 -1.000000 0.700000
endloop
endfacet
facet normal 0.000002 -1.000000 -0.000001
outer loop
vertex 8.500000 -1.000000 0.700000
vertex 8.497958 -1.000000 0.987478
vertex 8.495503 -1.000000 0.976822
endloop
endfacet
facet normal -0.000038 -1.000000 -0.000001
outer loop
vertex 8.500000 -1.000000 0.700000
vertex 8.495503 -1.000000 0.976822
vertex 8.492641 -1.000000 0.967961
endloop
endfacet
facet normal -0.000000 -1.000000 0.000000
outer loop
vertex 8.190987 -1.000000 0.719972
vertex 8.145423 -1.000000 0.707594
vertex 8.500000 -1.000000 0.700000
endloop
endfacet
facet normal 0.000000 -1.000000 0.000000
outer loop
vertex 8.247953 -1.000000 0.740504
vertex 8.244763 -1.000000 0.739354
vertex 8.190987 -1.000000 0.719972
endloop
endfacet
facet normal -0.102173 -0.957092 0.271176
outer loop
vertex 8.302839 -1.000000 0.765524
vertex 8.251026 -1.000000 0.741905
vertex 8.247953 -1.000000 0.740504
endloop
endfacet
facet normal -0.289793 0.219211 0.931647
outer loop
vertex 8.339802 -1.000000 0.786180
vertex 8.304909 -1.000000 0.766680
vertex 8.302839 -1.000000 0.765524
endloop
endfacet
facet normal 0.000000 -1.000000 0.000000
outer loop
vertex 8.247953 -1.000000 0.740504
vertex 8.190987 -1.000000 0.719972
vertex 8.500000 -1.000000 0.700000
endloop
endfacet
facet normal 0.000649 -1.000000 0.000020
outer loop
vertex 8.500000 -1.000000 0.700000
vertex 8.492641 -1.000000 0.967961
vertex 8.492472 -1.000000 0.967436
endloop
endfacet
facet normal -0.523988 0.752172 0.399592
outer loop
vertex 8.492472 -1.000000 0.967436
vertex 8.487970 -1.000000 0.957160
vertex 8.487703 -1.000000 0.956551
endloop
endfacet
facet normal 0.000001 -1.000000 -0.000001
outer loop
vertex 8.500000 -1.000000 0.700000
vertex 8.492472 -1.000000 0.967436
vertex 8.487703 -1.000000 0.956551
endloop
endfacet
facet normal 0.000000 -1.000000 -0.000007
outer loop
vertex 8.302839 -1.000000 0.765524
vertex 8.247953 -1.000000 0.740504
vertex 8.500000 -1.000000 0.700000
endloop
endfacet
facet normal 0.000000 -1.000000 0.000000
outer loop
vertex 8.339802 -1.000000 0.786180
vertex 8.302839 -1.000000 0.765524
vertex 8.500000 -1.000000 0.700000
endloop
endfacet
facet normal -0.000006 -1.000000 -0.000001
outer loop
vertex 8.500000 -1.000000 0.700000
vertex 8.487703 -1.000000 0.956551
vertex 8.472800 -1.000000 0.924567
endloop
endfacet
facet normal 0.000107 -1.000000 0.000015
outer loop
vertex 8.500000 -1.000000 0.700000
vertex 8.472800 -1.000000 0.924567
vertex 8.471916 -1.000000 0.922670
endloop
endfacet
facet normal 0.000000 -1.000000 0.000000
outer loop
vertex 8.371861 -1.000000 0.810567
vertex 8.339802 -1.000000 0.786180
vertex 8.500000 -1.000000 0.700000
endloop
endfacet
facet normal 0.000000 1.000000 0.000000
outer loop
vertex 8.407915 -1.000000 0.842648
vertex 8.406003 -1.000000 0.840933
vertex 8.373763 -1.000000 0.812013
endloop
endfacet
facet normal 0.000000 -1.000000 0.000000
outer loop
vertex 8.373763 -1.000000 0.812013
vertex 8.371861 -1.000000 0.810567
vertex 8.500000 -1.000000 0.700000
endloop
endfacet
facet normal 0.000001 -1.000000 0.000000
outer loop
vertex 8.500000 -1.000000 0.700000
vertex 8.471916 -1.000000 0.922670
vertex 8.471073 -1.000000 0.921279
endloop
endfacet
facet normal -0.216417 -0.920288 0.325935
outer loop
vertex 8.456862 -1.000000 0.897834
vertex 8.440225 -1.000000 0.877022
vertex 8.439239 -1.000000 0.875787
endloop
endfacet
facet normal 0.000001 -1.000000 -0.000001
outer loop
vertex 8.500000 -1.000000 0.700000
vertex 8.471073 -1.000000 0.921279
vertex 8.456862 -1.000000 0.897834
endloop
endfacet
facet normal 0.000000 -1.000000 -0.000004
outer loop
vertex 8.407915 -1.000000 0.842648
vertex 8.373763 -1.000000 0.812013
vertex 8.500000 -1.000000 0.700000
endloop
endfacet
facet normal -0.084231 0.992866 0.084394
outer loop
vertex 8.439239 -1.000000 0.875787
vertex 8.409669 -1.000000 0.844503
vertex 8.407915 -1.000000 0.842648
endloop
endfacet
facet normal 0.000001 -1.000000 0.000000
outer loop
vertex 8.500000 -1.000000 0.700000
vertex 8.456862 -1.000000 0.897834
vertex 8.439239 -1.000000 0.875787
endloop
endfacet
facet normal 0.000001 -1.000000 -0.000002
outer loop
vertex 8.439239 -1.000000 0.875787
vertex 8.407915 -1.000000 0.842648
vertex 8.500000 -1.000000 0.700000
endloop
endfacet
facet normal 0.000000 0.000000 1.000000
outer loop
vertex 8.499347 1.000000 1.000001
vertex 8.499347 -1.000000 1.000001
vertex 8.500000 -1.000000 1.000001
endloop
endfacet
facet normal 0.000000 0.000000 1.000000
outer loop
vertex 8.499347 1.000000 1.000001
vertex 8.500000 -1.000000 1.000001
vertex 8.500000 1.000000 1.000001
endloop
endfacet
facet normal 0.781278 -0.000004 -0.624184
outer loop
vertex 8.454911 1.000000 0.895394
vertex 8.440225 -1.000000 0.877022
vertex 8.439239 -1.000000 0.875787
endloop
endfacet
facet normal 0.781112 0.000000 -0.624392
outer loop
vertex 8.454911 1.000000 0.895394
vertex 8.439239 -1.000000 0.875787
vertex 8.439239 1.000000 0.875787
endloop
endfacet
facet normal -0.605351 -0.000007 0.795958
outer loop
vertex 8.343561 1.000000 0.789039
vertex 8.371861 -1.000000 0.810567
vertex 8.373763 -1.000000 0.812013
endloop
endfacet
facet normal -0.605425 0.000000 0.795903
outer loop
vertex 8.343561 1.000000 0.789039
vertex 8.373763 -1.000000 0.812013
vertex 8.373763 1.000000 0.812013
endloop
endfacet
facet normal -0.855103 0.000000 0.518458
outer loop
vertex 8.458529 1.000000 0.900583
vertex 8.471073 -1.000000 0.921279
vertex 8.471916 -1.000000 0.922670
endloop
endfacet
facet normal -0.855175 0.000000 0.518340
outer loop
vertex 8.458529 1.000000 0.900583
vertex 8.471916 -1.000000 0.922670
vertex 8.471916 1.000000 0.922670
endloop
endfacet
facet normal 0.262230 -0.000002 -0.965005
outer loop
vertex 8.185644 1.000000 0.718521
vertex 8.145423 -1.000000 0.707594
vertex 8.142721 -1.000000 0.706859
endloop
endfacet
facet normal 0.262181 0.000000 -0.965019
outer loop
vertex 8.185644 1.000000 0.718521
vertex 8.142721 -1.000000 0.706859
vertex 8.142721 1.000000 0.706859
endloop
endfacet
facet normal 0.906392 -0.000005 -0.422438
outer loop
vertex 8.485956 1.000000 0.952801
vertex 8.472800 -1.000000 0.924567
vertex 8.471916 -1.000000 0.922670
endloop
endfacet
facet normal 0.906427 0.000000 -0.422363
outer loop
vertex 8.485956 1.000000 0.952801
vertex 8.471916 -1.000000 0.922670
vertex 8.471916 1.000000 0.922670
endloop
endfacet
facet normal 0.414838 0.000000 -0.909895
outer loop
vertex 8.296764 1.000000 0.762755
vertex 8.251026 -1.000000 0.741905
vertex 8.247953 -1.000000 0.740504
endloop
endfacet
facet normal 0.414795 0.000000 -0.909915
outer loop
vertex 8.296764 1.000000 0.762755
vertex 8.247953 -1.000000 0.740504
vertex 8.247953 1.000000 0.740504
endloop
endfacet
facet normal 0.726715 -0.000008 -0.686939
outer loop
vertex 8.435772 1.000000 0.872119
vertex 8.409669 -1.000000 0.844503
vertex 8.407915 -1.000000 0.842648
endloop
endfacet
facet normal 0.726733 0.000000 -0.686920
outer loop
vertex 8.435772 1.000000 0.872119
vertex 8.407915 -1.000000 0.842648
vertex 8.407915 1.000000 0.842648
endloop
endfacet
facet normal -0.974363 0.000011 0.224980
outer loop
vertex 8.495791 1.000000 0.978071
vertex 8.497958 -1.000000 0.987478
vertex 8.498104 -1.000000 0.988110
endloop
endfacet
facet normal -0.974475 0.000000 0.224496
outer loop
vertex 8.495791 1.000000 0.978071
vertex 8.498104 -1.000000 0.988110
vertex 8.498104 1.000000 0.988110
endloop
endfacet
facet normal -0.029106 -0.000000 0.999576
outer loop
vertex 8.079139 1.000000 0.701601
vertex 8.030943 -1.000000 0.700198
vertex 8.085540 -1.000000 0.701788
endloop
endfacet
facet normal -0.029115 0.000000 0.999576
outer loop
vertex 8.079139 1.000000 0.701601
vertex 8.085540 -1.000000 0.701788
vertex 8.085540 1.000000 0.701788
endloop
endfacet
facet normal -0.605420 0.000000 0.795906
outer loop
vertex 8.339802 1.000000 0.786180
vertex 8.339802 -1.000000 0.786180
vertex 8.371861 -1.000000 0.810567
endloop
endfacet
facet normal -0.605365 0.000003 0.795948
outer loop
vertex 8.339802 1.000000 0.786180
vertex 8.371861 -1.000000 0.810567
vertex 8.343561 1.000000 0.789039
endloop
endfacet
facet normal -0.855179 0.000000 0.518333
outer loop
vertex 8.456862 1.000000 0.897834
vertex 8.456862 -1.000000 0.897834
vertex 8.471073 -1.000000 0.921279
endloop
endfacet
facet normal -0.855184 -0.000005 0.518325
outer loop
vertex 8.456862 1.000000 0.897834
vertex 8.471073 -1.000000 0.921279
vertex 8.458529 1.000000 0.900583
endloop
endfacet
facet normal 0.951598 0.000000 -0.307345
outer loop
vertex 8.495169 1.000000 0.975783
vertex 8.492641 -1.000000 0.967961
vertex 8.492472 -1.000000 0.967436
endloop
endfacet
facet normal 0.951566 0.000000 -0.307445
outer loop
vertex 8.495169 1.000000 0.975783
vertex 8.492472 -1.000000 0.967436
vertex 8.492472 1.000000 0.967436
endloop
endfacet
facet normal -1.000000 0.000000 0.000000
outer loop
vertex 8.028300 -1.000000 0.700121
vertex 8.028300 1.000000 0.700121
vertex 8.028300 1.000000 0.700000
endloop
endfacet
facet normal -1.000000 0.000000 0.000000
outer loop
vertex 8.028300 -1.000000 0.700121
vertex 8.028300 1.000000 0.700000
vertex 8.028300 -1.000000 0.700000
endloop
endfacet
facet normal 0.781087 0.000000 -0.624422
outer loop
vertex 8.456862 1.000000 0.897834
vertex 8.456862 -1.000000 0.897834
vertex 8.440225 -1.000000 0.877022
endloop
endfacet
facet normal 0.781003 0.000005 -0.624527
outer loop
vertex 8.456862 1.000000 0.897834
vertex 8.440225 -1.000000 0.877022
vertex 8.454911 1.000000 0.895394
endloop
endfacet
facet normal 1.000000 0.000000 0.000000
outer loop
vertex 8.499999 1.000000 0.700000
vertex 8.499999 1.000000 1.000000
vertex 8.499999 -1.000000 1.000000
endloop
endfacet
facet normal 1.000000 0.000000 0.000000
outer loop
vertex 8.499999 1.000000 0.700000
vertex 8.499999 -1.000000 1.000000
vertex 8.499999 -1.000000 0.700000
endloop
endfacet
facet normal -1.000000 0.000000 0.000000
outer loop
vertex 8.499999 -1.000000 0.700000
vertex 8.499999 -1.000000 1.000000
vertex 8.499999 1.000000 1.000000
endloop
endfacet
facet normal -1.000000 0.000000 0.000000
outer loop
vertex 8.499999 -1.000000 0.700000
vertex 8.499999 1.000000 1.000000
vertex 8.499999 1.000000 0.700000
endloop
endfacet
facet normal 1.000000 0.000000 0.000000
outer loop
vertex 8.599999 -0.900000 0.800000
vertex 8.599999 0.900000 0.800000
vertex 8.599999 0.900000 1.000000
endloop
endfacet
facet normal 1.000000 0.000000 0.000000
outer loop
vertex 8.599999 -0.900000 0.800000
vertex 8.599999 0.900000 1.000000
vertex 8.599999 -0.900000 1.000000
endloop
endfacet
facet normal 0.000000 -1.000000 0.000000
outer loop
vertex 8.599999 0.900000 0.800000
vertex 11.400000 0.900000 0.800000
vertex 11.400000 0.900000 1.000000
endloop
endfacet
facet normal 0.000000 -1.000000 0.000000
outer loop
vertex 8.599999 0.900000 0.800000
vertex 11.400000 0.900000 1.000000
vertex 8.599999 0.900000 1.000000
endloop
endfacet
facet normal -1.000000 0.000000 0.000000
outer loop
vertex 11.400000 0.900000 0.800000
vertex 11.400000 -0.900000 0.800000
vertex 11.400000 -0.900000 1.000000
endloop
endfacet
facet normal -1.000000 0.000000 0.000000
outer loop
vertex 11.400000 0.900000 0.800000
vertex 11.400000 -0.900000 1.000000
vertex 11.400000 0.900000 1.000000
endloop
endfacet
facet normal -0.000000 1.000000 0.000000
outer loop
vertex 11.400000 -0.900000 0.800000
vertex 8.599999 -0.900000 0.800000
vertex 8.599999 -0.900000 1.000000
endloop
endfacet
facet normal -0.000000 1.000000 0.000000
outer loop
vertex 11.400000 -0.900000 0.800000
vertex 8.599999 -0.900000 1.000000
vertex 11.400000 -0.900000 1.000000
endloop
endfacet
facet normal 0.000000 0.000000 1.000000
outer loop
vertex 8.599999 0.900000 0.800000
vertex 8.599999 -0.900000 0.800000
vertex 11.400000 -0.900000 0.800000
endloop
endfacet
facet normal 0.000000 0.000000 1.000000
outer loop
vertex 8.599999 0.900000 0.800000
vertex 11.400000 -0.900000 0.800000
vertex 11.400000 0.900000 0.800000
endloop
endfacet
facet normal -1.000000 0.000002 0.000000
outer loop
vertex 8.499999 -1.000000 0.700000
vertex 8.499999 -1.000000 1.000000
vertex 8.500000 1.000000 1.000000
endloop
endfacet
facet normal -1.000000 0.000000 0.000000
outer loop
vertex 8.499999 -1.000000 0.700000
vertex 8.500000 1.000000 1.000000
vertex 8.500000 1.000000 0.700000
endloop
endfacet
facet normal 0.000000 1.000000 0.000000
outer loop
vertex 8.500000 1.000000 0.700000
vertex 8.500000 1.000000 1.000000
vertex 11.500000 1.000000 1.000000
endloop
endfacet
facet normal 0.000000 1.000000 0.000000
outer loop
vertex 8.500000 1.000000 0.700000
vertex 11.500000 1.000000 1.000000
vertex 11.500000 1.000000 0.700000
endloop
endfacet
facet normal 1.000000 0.000000 0.000000
outer loop
vertex 11.500000 1.000000 0.700000
vertex 11.500000 1.000000 1.000000
vertex 11.500000 -1.000000 1.000000
endloop
endfacet
facet normal 1.000000 0.000000 0.000000
outer loop
vertex 11.500000 1.000000 0.700000
vertex 11.500000 -1.000000 1.000000
vertex 11.500000 -1.000000 0.700000
endloop
endfacet
facet normal 0.000000 -1.000000 0.000000
outer loop
vertex 11.500000 -1.000000 0.700000
vertex 11.500000 -1.000000 1.000000
vertex 8.499999 -1.000000 1.000000
endloop
endfacet
facet normal 0.000000 -1.000000 0.000000
outer loop
vertex 11.500000 -1.000000 0.700000
vertex 8.499999 -1.000000 1.000000
vertex 8.499999 -1.000000 0.700000
endloop
endfacet
facet normal 0.000000 0.000000 -1.000000
outer loop
vertex 8.500000 1.000000 0.700000
vertex 11.500000 1.000000 0.700000
vertex 11.500000 -1.000000 0.700000
endloop
endfacet
facet normal 0.000000 0.000000 -1.000000
outer loop
vertex 8.500000 1.000000 0.700000
vertex 11.500000 -1.000000 0.700000
vertex 8.499999 -1.000000 0.700000
endloop
endfacet
facet normal 0.000000 0.000000 1.000000
outer loop
vertex 11.500000 -1.000000 1.000000
vertex 11.500000 1.000000 1.000000
vertex 11.400000 0.900000 1.000000
endloop
endfacet
facet normal 0.000000 0.000000 1.000000
outer loop
vertex 11.400000 -0.900000 1.000000
vertex 8.599999 -0.900000 1.000000
vertex 8.499999 -1.000000 1.000000
endloop
endfacet
facet normal 0.000000 0.000000 1.000000
outer loop
vertex 11.500000 -1.000000 1.000000
vertex 11.400000 0.900000 1.000000
vertex 11.400000 -0.900000 1.000000
endloop
endfacet
facet normal 0.000000 0.000000 1.000000
outer loop
vertex 11.400000 -0.900000 1.000000
vertex 8.499999 -1.000000 1.000000
vertex 11.500000 -1.000000 1.000000
endloop
endfacet
facet normal 0.000000 0.000000 1.000000
outer loop
vertex 8.500000 1.000000 1.000000
vertex 8.499999 -1.000000 1.000000
vertex 8.599999 -0.900000 1.000000
endloop
endfacet
facet normal 0.000000 0.000000 1.000000
outer loop
vertex 8.599999 0.900000 1.000000
vertex 11.400000 0.900000 1.000000
vertex 11.500000 1.000000 1.000000
endloop
endfacet
facet normal 0.000000 0.000000 1.000000
outer loop
vertex 8.500000 1.000000 1.000000
vertex 8.599999 -0.900000 1.000000
vertex 8.599999 0.900000 1.000000
endloop
endfacet
facet normal 0.000000 0.000000 1.000000
outer loop
vertex 8.599999 0.900000 1.000000
vertex 11.500000 1.000000 1.000000
vertex 8.500000 1.000000 1.000000
endloop
endfacet
facet normal -1.000000 0.000000 0.000000
outer loop
vertex 11.400000 -1.000000 0.700000
vertex 11.400000 -1.000000 1.300000
vertex 11.400000 1.000000 1.300000
endloop
endfacet
facet normal -1.000000 0.000000 0.000000
outer loop
vertex 11.400000 -1.000000 0.700000
vertex 11.400000 1.000000 1.300000
vertex 11.400000 1.000000 0.700000
endloop
endfacet
facet normal 0.000000 1.000000 0.000000
outer loop
vertex 11.400000 1.000000 0.700000
vertex 11.400000 1.000000 1.300000
vertex 11.500000 1.000000 1.300000
endloop
endfacet
facet normal 0.000000 1.000000 0.000000
outer loop
vertex 11.400000 1.000000 0.700000
vertex 11.500000 1.000000 1.300000
vertex 11.500000 1.000000 0.700000
endloop
endfacet
facet normal 1.000000 0.000000 0.000000
outer loop
vertex 11.500000 1.000000 0.700000
vertex 11.500000 1.000000 1.300000
vertex 11.500000 -1.000000 1.300000
endloop
endfacet
facet normal 1.000000 0.000000 0.000000
outer loop
vertex 11.500000 1.000000 0.700000
vertex 11.500000 -1.000000 1.300000
vertex 11.500000 -1.000000 0.700000
endloop
endfacet
facet normal 0.000000 -1.000000 0.000000
outer loop
vertex 11.500000 -1.000000 0.700000
vertex 11.500000 -1.000000 1.300000
vertex 11.400000 -1.000000 1.300000
endloop
endfacet
facet normal 0.000000 -1.000000 0.000000
outer loop
vertex 11.500000 -1.000000 0.700000
vertex 11.400000 -1.000000 1.300000
vertex 11.400000 -1.000000 0.700000
endloop
endfacet
facet normal 0.000000 0.000000 -1.000000
outer loop
vertex 11.400000 1.000000 0.700000
vertex 11.500000 1.000000 0.700000
vertex 11.500000 -1.000000 0.700000
endloop
endfacet
facet normal -0.000001 0.000000 -1.000000
outer loop
vertex 11.400000 1.000000 0.700000
vertex 11.500000 -1.000000 0.700000
vertex 11.400000 -1.000000 0.700000
endloop
endfacet
facet normal 0.000000 0.000000 1.000000
outer loop
vertex 11.500000 1.000000 1.300000
vertex 11.400000 1.000000 1.300000
vertex 11.400000 -1.000000 1.300000
endloop
endfacet
facet normal 0.000000 0.000000 1.000000
outer loop
vertex 11.500000 1.000000 1.300000
vertex 11.400000 -1.000000 1.300000
vertex 11.500000 -1.000000 1.300000
endloop
endfacet
endsolid Exported from Blender-2.83.9
