solid Exported from Blender-2.83.9
facet normal 0.000000 -1.000000 0.000000
outer loop
vertex 8.309198 -1.000000 0.700415
vertex 8.309198 -1.000000 0.700000
vertex 8.499999 -1.000000 0.700000
endloop
endfacet
facet normal 0.000000 -1.000000 0.000000
outer loop
vertex 8.499999 -1.000000 0.700000
vertex 8.499999 -1.000000 1.000000
vertex 8.499922 -1.000000 1.000000
endloop
endfacet
facet normal 0.000000 -0.999990 -0.004557
outer loop
vertex 8.499922 -1.000000 1.000000
vertex 8.498981 -1.000000 0.967667
vertex 8.498862 -1.000000 0.963596
endloop
endfacet
facet normal 0.000000 -0.999969 0.007812
outer loop
vertex 8.498862 -1.000000 0.963596
vertex 8.495994 -1.000000 0.931254
vertex 8.495636 -1.000000 0.927229
endloop
endfacet
facet normal 0.000000 -1.000000 0.000000
outer loop
vertex 8.499999 -1.000000 0.700000
vertex 8.499922 -1.000000 1.000000
vertex 8.498862 -1.000000 0.963596
endloop
endfacet
facet normal 0.000000 -1.000000 0.000000
outer loop
vertex 8.309726 -1.000000 0.700470
vertex 8.309198 -1.000000 0.700415
vertex 8.499999 -1.000000 0.700000
endloop
endfacet
facet normal 0.000000 -1.000000 0.000000
outer loop
vertex 8.316762 -1.000000 0.701206
vertex 8.309726 -1.000000 0.700470
vertex 8.499999 -1.000000 0.700000
endloop
endfacet
facet normal 0.000000 -1.000000 -0.000001
outer loop
vertex 8.499999 -1.000000 0.700000
vertex 8.498862 -1.000000 0.963596
vertex 8.495636 -1.000000 0.927229
endloop
endfacet
facet normal 0.000000 -1.000000 0.000000
outer loop
vertex 8.499999 -1.000000 0.700000
vertex 8.495636 -1.000000 0.927229
vertex 8.488219 -1.000000 0.899929
endloop
endfacet
facet normal 0.000000 -1.000000 0.000000
outer loop
vertex 8.323146 -1.000000 0.702676
vertex 8.316762 -1.000000 0.701206
vertex 8.499999 -1.000000 0.700000
endloop
endfacet
facet normal 0.000000 -1.000000 0.000000
outer loop
vertex 8.323941 -1.000000 0.702859
vertex 8.323146 -1.000000 0.702676
vertex 8.499999 -1.000000 0.700000
endloop
endfacet
facet normal 0.000000 -1.000000 0.000001
outer loop
vertex 8.499999 -1.000000 0.700000
vertex 8.488219 -1.000000 0.899929
vertex 8.487296 -1.000000 0.896532
endloop
endfacet
facet normal 0.000000 -1.000000 0.000001
outer loop
vertex 8.499999 -1.000000 0.700000
vertex 8.487296 -1.000000 0.896532
vertex 8.485851 -1.000000 0.892522
endloop
endfacet
facet normal 0.000000 -1.000000 0.000000
outer loop
vertex 8.324601 -1.000000 0.703073
vertex 8.323941 -1.000000 0.702859
vertex 8.499999 -1.000000 0.700000
endloop
endfacet
facet normal 0.000000 -1.000000 0.000000
outer loop
vertex 8.329910 -1.000000 0.704788
vertex 8.324601 -1.000000 0.703073
vertex 8.499999 -1.000000 0.700000
endloop
endfacet
facet normal 0.000000 -1.000000 0.000000
outer loop
vertex 8.499999 -1.000000 0.700000
vertex 8.485851 -1.000000 0.892522
vertex 8.474238 -1.000000 0.860301
endloop
endfacet
facet normal 0.000000 -1.000000 -0.000001
outer loop
vertex 8.499999 -1.000000 0.700000
vertex 8.474238 -1.000000 0.860301
vertex 8.460087 -1.000000 0.829257
endloop
endfacet
facet normal 0.000000 -1.000000 0.000000
outer loop
vertex 8.330677 -1.000000 0.705124
vertex 8.329910 -1.000000 0.704788
vertex 8.499999 -1.000000 0.700000
endloop
endfacet
facet normal 0.000000 -1.000000 0.000000
outer loop
vertex 8.336833 -1.000000 0.707821
vertex 8.330677 -1.000000 0.705124
vertex 8.499999 -1.000000 0.700000
endloop
endfacet
facet normal 0.000000 -1.000000 0.000001
outer loop
vertex 8.499999 -1.000000 0.700000
vertex 8.460087 -1.000000 0.829257
vertex 8.458325 -1.000000 0.825394
endloop
endfacet
facet normal 0.000000 -1.000000 0.000001
outer loop
vertex 8.499999 -1.000000 0.700000
vertex 8.458325 -1.000000 0.825394
vertex 8.446643 -1.000000 0.804487
endloop
endfacet
facet normal 0.000000 -1.000000 0.000000
outer loop
vertex 8.339218 -1.000000 0.708932
vertex 8.336833 -1.000000 0.707821
vertex 8.499999 -1.000000 0.700000
endloop
endfacet
facet normal 0.000000 -1.000000 0.000000
outer loop
vertex 8.358381 -1.000000 0.717861
vertex 8.339218 -1.000000 0.708932
vertex 8.499999 -1.000000 0.700000
endloop
endfacet
facet normal 0.000000 -1.000000 0.000001
outer loop
vertex 8.499999 -1.000000 0.700000
vertex 8.446643 -1.000000 0.804487
vertex 8.445189 -1.000000 0.801885
endloop
endfacet
facet normal 0.000000 -0.998053 -0.062378
outer loop
vertex 8.445189 -1.000000 0.801885
vertex 8.443370 -1.000000 0.799495
vertex 8.428759 -1.000000 0.780286
endloop
endfacet
facet normal 0.000000 0.000000 0.000000
outer loop
vertex 8.428759 -1.000000 0.780286
vertex 8.426602 -1.000000 0.777882
vertex 8.409275 -1.000000 0.758565
endloop
endfacet
facet normal 0.000000 0.000000 1.000000
outer loop
vertex 8.409275 -1.000000 0.758565
vertex 8.390532 -1.000000 0.740849
vertex 8.388199 -1.000000 0.738644
endloop
endfacet
facet normal 0.000000 -1.000000 -0.000001
outer loop
vertex 8.499999 -1.000000 0.700000
vertex 8.445189 -1.000000 0.801885
vertex 8.428759 -1.000000 0.780286
endloop
endfacet
facet normal 0.000000 -1.000000 0.000000
outer loop
vertex 8.372429 -1.000000 0.726376
vertex 8.358381 -1.000000 0.717861
vertex 8.499999 -1.000000 0.700000
endloop
endfacet
facet normal 0.000000 -1.000000 0.000000
outer loop
vertex 8.374177 -1.000000 0.727435
vertex 8.372429 -1.000000 0.726376
vertex 8.499999 -1.000000 0.700000
endloop
endfacet
facet normal 0.000000 -1.000000 0.000001
outer loop
vertex 8.499999 -1.000000 0.700000
vertex 8.428759 -1.000000 0.780286
vertex 8.409275 -1.000000 0.758565
endloop
endfacet
facet normal 0.000000 -1.000000 0.000001
outer loop
vertex 8.499999 -1.000000 0.700000
vertex 8.409275 -1.000000 0.758565
vertex 8.388199 -1.000000 0.738644
endloop
endfacet
facet normal 0.000000 -1.000000 0.000000
outer loop
vertex 8.375729 -1.000000 0.728676
vertex 8.374177 -1.000000 0.727435
vertex 8.499999 -1.000000 0.700000
endloop
endfacet
facet normal 0.000000 -1.000000 0.000001
outer loop
vertex 8.499999 -1.000000 0.700000
vertex 8.388199 -1.000000 0.738644
vertex 8.375729 -1.000000 0.728676
endloop
endfacet
facet normal 0.000000 0.000000 -1.000000
outer loop
vertex 8.309198 1.000000 0.700000
vertex 8.499999 1.000000 0.700000
vertex 8.499999 -1.000000 0.700000
endloop
endfacet
facet normal 0.000000 0.000000 -1.000000
outer loop
vertex 8.309198 1.000000 0.700000
vertex 8.499999 -1.000000 0.700000
vertex 8.309198 -1.000000 0.700000
endloop
endfacet
facet normal 1.000000 0.000000 0.000000
outer loop
vertex 8.499999 1.000000 1.000000
vertex 8.499999 -1.000000 1.000000
vertex 8.499999 -1.000000 0.700000
endloop
endfacet
facet normal 1.000000 0.000000 0.000000
outer loop
vertex 8.499999 1.000000 1.000000
vertex 8.499999 -1.000000 0.700000
vertex 8.499999 1.000000 0.700000
endloop
endfacet
facet normal -0.940769 0.000000 0.339047
outer loop
vertex 8.487296 -1.000000 0.896532
vertex 8.487296 1.000000 0.896532
vertex 8.474970 1.000000 0.862330
endloop
endfacet
facet normal -0.940795 0.000000 0.338975
outer loop
vertex 8.487296 -1.000000 0.896532
vertex 8.474970 1.000000 0.862330
vertex 8.485851 -1.000000 0.892522
endloop
endfacet
facet normal 0.873021 0.000004 -0.487683
outer loop
vertex 8.446643 -1.000000 0.804487
vertex 8.457590 1.000000 0.824077
vertex 8.458325 1.000000 0.825394
endloop
endfacet
facet normal 0.872951 0.000000 -0.487807
outer loop
vertex 8.446643 -1.000000 0.804487
vertex 8.458325 1.000000 0.825394
vertex 8.458325 -1.000000 0.825394
endloop
endfacet
facet normal 0.909912 0.000000 -0.414802
outer loop
vertex 8.458325 -1.000000 0.825394
vertex 8.458325 1.000000 0.825394
vertex 8.473348 1.000000 0.858347
endloop
endfacet
facet normal 0.909894 -0.000004 -0.414841
outer loop
vertex 8.458325 -1.000000 0.825394
vertex 8.473348 1.000000 0.858347
vertex 8.460087 -1.000000 0.829257
endloop
endfacet
facet normal 0.422342 0.000000 -0.906437
outer loop
vertex 8.336833 -1.000000 0.707821
vertex 8.336833 1.000000 0.707821
vertex 8.357175 1.000000 0.717299
endloop
endfacet
facet normal 0.422325 0.000000 -0.906445
outer loop
vertex 8.336833 -1.000000 0.707821
vertex 8.357175 1.000000 0.717299
vertex 8.339218 -1.000000 0.708932
endloop
endfacet
facet normal 0.965014 0.000000 -0.262200
outer loop
vertex 8.487296 -1.000000 0.896532
vertex 8.487296 1.000000 0.896532
vertex 8.495170 1.000000 0.925510
endloop
endfacet
facet normal 0.965010 0.000000 -0.262212
outer loop
vertex 8.487296 -1.000000 0.896532
vertex 8.495170 1.000000 0.925510
vertex 8.488219 -1.000000 0.899929
endloop
endfacet
facet normal -0.940713 -0.000009 0.339203
outer loop
vertex 8.485851 -1.000000 0.892522
vertex 8.474970 1.000000 0.862330
vertex 8.474238 1.000000 0.860301
endloop
endfacet
facet normal -0.940762 0.000000 0.339067
outer loop
vertex 8.485851 -1.000000 0.892522
vertex 8.474238 1.000000 0.860301
vertex 8.474238 -1.000000 0.860301
endloop
endfacet
facet normal 0.996089 0.000000 -0.088351
outer loop
vertex 8.495636 -1.000000 0.927229
vertex 8.495636 1.000000 0.927229
vertex 8.498681 1.000000 0.961560
endloop
endfacet
facet normal 0.996076 0.000007 -0.088503
outer loop
vertex 8.495636 -1.000000 0.927229
vertex 8.498681 1.000000 0.961560
vertex 8.495994 -1.000000 0.931254
endloop
endfacet
facet normal 0.103866 0.000001 -0.994591
outer loop
vertex 8.316319 1.000000 0.701159
vertex 8.309726 -1.000000 0.700470
vertex 8.309198 -1.000000 0.700415
endloop
endfacet
facet normal 0.103941 0.000000 -0.994583
outer loop
vertex 8.316319 1.000000 0.701159
vertex 8.309198 -1.000000 0.700415
vertex 8.309198 1.000000 0.700415
endloop
endfacet
facet normal -0.744405 0.000000 0.667729
outer loop
vertex 8.428759 -1.000000 0.780286
vertex 8.428759 1.000000 0.780286
vertex 8.410366 1.000000 0.759782
endloop
endfacet
facet normal -0.744437 0.000000 0.667693
outer loop
vertex 8.428759 -1.000000 0.780286
vertex 8.410366 1.000000 0.759782
vertex 8.426602 -1.000000 0.777882
endloop
endfacet
facet normal 0.401237 0.000000 -0.915974
outer loop
vertex 8.329910 -1.000000 0.704788
vertex 8.329910 1.000000 0.704788
vertex 8.336446 1.000000 0.707651
endloop
endfacet
facet normal 0.401058 0.000000 -0.916053
outer loop
vertex 8.329910 -1.000000 0.704788
vertex 8.336446 1.000000 0.707651
vertex 8.330677 -1.000000 0.705124
endloop
endfacet
facet normal -0.744342 0.000002 0.667799
outer loop
vertex 8.426602 -1.000000 0.777882
vertex 8.410366 1.000000 0.759782
vertex 8.409275 1.000000 0.758565
endloop
endfacet
facet normal -0.744399 0.000000 0.667735
outer loop
vertex 8.426602 -1.000000 0.777882
vertex 8.409275 1.000000 0.758565
vertex 8.409275 -1.000000 0.758565
endloop
endfacet
facet normal 0.103910 0.000000 -0.994587
outer loop
vertex 8.309726 -1.000000 0.700470
vertex 8.316319 1.000000 0.701159
vertex 8.316762 1.000000 0.701206
endloop
endfacet
facet normal 0.103951 0.000000 -0.994583
outer loop
vertex 8.309726 -1.000000 0.700470
vertex 8.316762 1.000000 0.701206
vertex 8.316762 -1.000000 0.701206
endloop
endfacet
facet normal 0.996104 -0.000001 -0.088182
outer loop
vertex 8.495994 -1.000000 0.931254
vertex 8.498681 1.000000 0.961560
vertex 8.498861 1.000000 0.963596
endloop
endfacet
facet normal 0.996089 0.000001 -0.088350
outer loop
vertex 8.495994 -1.000000 0.931254
vertex 8.498861 1.000000 0.963596
vertex 8.498862 -1.000000 0.963596
endloop
endfacet
facet normal 0.686906 0.000000 -0.726746
outer loop
vertex 8.388199 -1.000000 0.738644
vertex 8.388199 1.000000 0.738644
vertex 8.408095 1.000000 0.757450
endloop
endfacet
facet normal 0.686920 -0.000005 -0.726733
outer loop
vertex 8.388199 -1.000000 0.738644
vertex 8.408095 1.000000 0.757450
vertex 8.390532 -1.000000 0.740849
endloop
endfacet
facet normal -0.999577 0.000000 0.029099
outer loop
vertex 8.499873 1.000000 0.998319
vertex 8.498981 -1.000000 0.967667
vertex 8.499922 -1.000000 1.000000
endloop
endfacet
facet normal -0.999581 0.000000 0.028930
outer loop
vertex 8.499873 1.000000 0.998319
vertex 8.499922 -1.000000 1.000000
vertex 8.499922 1.000000 1.000000
endloop
endfacet
facet normal 0.872940 0.000000 -0.487828
outer loop
vertex 8.445189 -1.000000 0.801885
vertex 8.445189 1.000000 0.801885
vertex 8.457590 1.000000 0.824077
endloop
endfacet
facet normal 0.872890 -0.000005 -0.487916
outer loop
vertex 8.445189 -1.000000 0.801885
vertex 8.457590 1.000000 0.824077
vertex 8.446643 -1.000000 0.804487
endloop
endfacet
facet normal 0.307428 0.000000 -0.951571
outer loop
vertex 8.323941 -1.000000 0.702859
vertex 8.323941 1.000000 0.702859
vertex 8.329576 1.000000 0.704680
endloop
endfacet
facet normal 0.307656 0.000000 -0.951498
outer loop
vertex 8.323941 -1.000000 0.702859
vertex 8.329576 1.000000 0.704680
vertex 8.324601 -1.000000 0.703073
endloop
endfacet
facet normal -0.224475 0.000000 0.974480
outer loop
vertex 8.323941 -1.000000 0.702859
vertex 8.323941 1.000000 0.702859
vertex 8.317163 1.000000 0.701298
endloop
endfacet
facet normal -0.224209 0.000001 0.974541
outer loop
vertex 8.323941 -1.000000 0.702859
vertex 8.317163 1.000000 0.701298
vertex 8.323146 -1.000000 0.702676
endloop
endfacet
facet normal 0.401682 0.000004 -0.915779
outer loop
vertex 8.330677 -1.000000 0.705124
vertex 8.336446 1.000000 0.707651
vertex 8.336833 1.000000 0.707821
endloop
endfacet
facet normal 0.401288 0.000000 -0.915952
outer loop
vertex 8.330677 -1.000000 0.705124
vertex 8.336833 1.000000 0.707821
vertex 8.336833 -1.000000 0.707821
endloop
endfacet
facet normal 0.000000 1.000000 0.000000
outer loop
vertex 8.309198 1.000000 0.700000
vertex 8.309198 1.000000 0.700415
vertex 8.316319 1.000000 0.701159
endloop
endfacet
facet normal -0.000374 0.999987 0.005044
outer loop
vertex 8.309198 1.000000 0.700000
vertex 8.316319 1.000000 0.701159
vertex 8.316762 1.000000 0.701206
endloop
endfacet
facet normal 0.000000 1.000000 0.000000
outer loop
vertex 8.499922 1.000000 1.000000
vertex 8.499999 1.000000 1.000000
vertex 8.499999 1.000000 0.700000
endloop
endfacet
facet normal 0.042698 0.999088 0.000000
outer loop
vertex 8.498861 1.000000 0.963596
vertex 8.499873 1.000000 0.998319
vertex 8.499922 1.000000 1.000000
endloop
endfacet
facet normal -0.038762 0.999249 0.000000
outer loop
vertex 8.495636 1.000000 0.927229
vertex 8.498681 1.000000 0.961560
vertex 8.498861 1.000000 0.963596
endloop
endfacet
facet normal 0.000056 1.000000 0.000000
outer loop
vertex 8.498861 1.000000 0.963596
vertex 8.499922 1.000000 1.000000
vertex 8.499999 1.000000 0.700000
endloop
endfacet
facet normal 0.000000 1.000000 -0.000130
outer loop
vertex 8.499999 1.000000 0.700000
vertex 8.309198 1.000000 0.700000
vertex 8.316762 1.000000 0.701206
endloop
endfacet
facet normal 0.000000 1.000000 0.000000
outer loop
vertex 8.499999 1.000000 0.700000
vertex 8.316762 1.000000 0.701206
vertex 8.317163 1.000000 0.701298
endloop
endfacet
facet normal 0.000002 1.000000 0.000000
outer loop
vertex 8.495636 1.000000 0.927229
vertex 8.498861 1.000000 0.963596
vertex 8.499999 1.000000 0.700000
endloop
endfacet
facet normal -0.000118 1.000000 -0.000008
outer loop
vertex 8.495170 1.000000 0.925510
vertex 8.495636 1.000000 0.927229
vertex 8.499999 1.000000 0.700000
endloop
endfacet
facet normal 0.000000 1.000000 0.000000
outer loop
vertex 8.499999 1.000000 0.700000
vertex 8.317163 1.000000 0.701298
vertex 8.323941 1.000000 0.702859
endloop
endfacet
facet normal 0.000001 1.000000 0.000089
outer loop
vertex 8.499999 1.000000 0.700000
vertex 8.323941 1.000000 0.702859
vertex 8.329576 1.000000 0.704680
endloop
endfacet
facet normal 0.000007 1.000000 0.000000
outer loop
vertex 8.487296 1.000000 0.896532
vertex 8.495170 1.000000 0.925510
vertex 8.499999 1.000000 0.700000
endloop
endfacet
facet normal 0.000000 1.000000 0.000000
outer loop
vertex 8.474238 1.000000 0.860301
vertex 8.474970 1.000000 0.862330
vertex 8.487296 1.000000 0.896532
endloop
endfacet
facet normal -0.092686 -0.995695 0.000000
outer loop
vertex 8.458325 1.000000 0.825394
vertex 8.473348 1.000000 0.858347
vertex 8.474238 1.000000 0.860301
endloop
endfacet
facet normal -0.106851 0.994275 0.000000
outer loop
vertex 8.445189 1.000000 0.801885
vertex 8.457590 1.000000 0.824077
vertex 8.458325 1.000000 0.825394
endloop
endfacet
facet normal 0.000001 1.000000 0.000000
outer loop
vertex 8.474238 1.000000 0.860301
vertex 8.487296 1.000000 0.896532
vertex 8.499999 1.000000 0.700000
endloop
endfacet
facet normal -0.000014 0.999999 -0.001491
outer loop
vertex 8.499999 1.000000 0.700000
vertex 8.329576 1.000000 0.704680
vertex 8.329910 1.000000 0.704788
endloop
endfacet
facet normal -0.048466 0.998825 0.000000
outer loop
vertex 8.329910 1.000000 0.704788
vertex 8.336446 1.000000 0.707651
vertex 8.336833 1.000000 0.707821
endloop
endfacet
facet normal 0.000000 1.000000 0.000000
outer loop
vertex 8.499999 1.000000 0.700000
vertex 8.329910 1.000000 0.704788
vertex 8.336833 1.000000 0.707821
endloop
endfacet
facet normal 0.000001 1.000000 0.000000
outer loop
vertex 8.458325 1.000000 0.825394
vertex 8.474238 1.000000 0.860301
vertex 8.499999 1.000000 0.700000
endloop
endfacet
facet normal 0.000001 1.000000 0.000000
outer loop
vertex 8.445189 1.000000 0.801885
vertex 8.458325 1.000000 0.825394
vertex 8.499999 1.000000 0.700000
endloop
endfacet
facet normal 0.000001 1.000000 0.000017
outer loop
vertex 8.499999 1.000000 0.700000
vertex 8.336833 1.000000 0.707821
vertex 8.357175 1.000000 0.717299
endloop
endfacet
facet normal -0.000010 1.000000 -0.000295
outer loop
vertex 8.499999 1.000000 0.700000
vertex 8.357175 1.000000 0.717299
vertex 8.358381 1.000000 0.717861
endloop
endfacet
facet normal 0.000000 1.000000 0.000000
outer loop
vertex 8.429679 1.000000 0.781495
vertex 8.445189 1.000000 0.801885
vertex 8.499999 1.000000 0.700000
endloop
endfacet
facet normal 0.000000 0.000000 0.000000
outer loop
vertex 8.409275 1.000000 0.758565
vertex 8.410366 1.000000 0.759782
vertex 8.428759 1.000000 0.780286
endloop
endfacet
facet normal 0.000000 1.000000 0.000000
outer loop
vertex 8.428759 1.000000 0.780286
vertex 8.429679 1.000000 0.781495
vertex 8.499999 1.000000 0.700000
endloop
endfacet
facet normal 0.000000 1.000000 0.000000
outer loop
vertex 8.499999 1.000000 0.700000
vertex 8.358381 1.000000 0.717861
vertex 8.359265 1.000000 0.718397
endloop
endfacet
facet normal -0.142017 0.989864 0.000000
outer loop
vertex 8.374177 1.000000 0.727435
vertex 8.387413 1.000000 0.738017
vertex 8.388199 1.000000 0.738644
endloop
endfacet
facet normal 0.000000 1.000000 0.000000
outer loop
vertex 8.499999 1.000000 0.700000
vertex 8.359265 1.000000 0.718397
vertex 8.374177 1.000000 0.727435
endloop
endfacet
facet normal 0.000000 1.000000 0.000000
outer loop
vertex 8.409275 1.000000 0.758565
vertex 8.428759 1.000000 0.780286
vertex 8.499999 1.000000 0.700000
endloop
endfacet
facet normal -0.042460 -0.999098 0.000000
outer loop
vertex 8.388199 1.000000 0.738644
vertex 8.408095 1.000000 0.757450
vertex 8.409275 1.000000 0.758565
endloop
endfacet
facet normal 0.000000 1.000000 0.000000
outer loop
vertex 8.499999 1.000000 0.700000
vertex 8.374177 1.000000 0.727435
vertex 8.388199 1.000000 0.738644
endloop
endfacet
facet normal 0.000000 1.000000 0.000000
outer loop
vertex 8.388199 1.000000 0.738644
vertex 8.409275 1.000000 0.758565
vertex 8.499999 1.000000 0.700000
endloop
endfacet
facet normal -1.000000 0.000000 0.000000
outer loop
vertex 8.309198 -1.000000 0.700415
vertex 8.309198 1.000000 0.700415
vertex 8.309198 1.000000 0.700000
endloop
endfacet
facet normal -1.000000 0.000000 0.000000
outer loop
vertex 8.309198 -1.000000 0.700415
vertex 8.309198 1.000000 0.700000
vertex 8.309198 -1.000000 0.700000
endloop
endfacet
facet normal 0.624047 0.000002 -0.781387
outer loop
vertex 8.375729 -1.000000 0.728676
vertex 8.387413 1.000000 0.738017
vertex 8.388199 1.000000 0.738644
endloop
endfacet
facet normal 0.624388 0.000000 -0.781114
outer loop
vertex 8.375729 -1.000000 0.728676
vertex 8.388199 1.000000 0.738644
vertex 8.388199 -1.000000 0.738644
endloop
endfacet
facet normal -0.795763 0.000009 0.605608
outer loop
vertex 8.443370 -1.000000 0.799495
vertex 8.429679 1.000000 0.781495
vertex 8.428759 1.000000 0.780286
endloop
endfacet
facet normal -0.795910 0.000000 0.605416
outer loop
vertex 8.443370 -1.000000 0.799495
vertex 8.428759 1.000000 0.780286
vertex 8.428759 -1.000000 0.780286
endloop
endfacet
facet normal -0.518509 -0.000006 0.855072
outer loop
vertex 8.372429 -1.000000 0.726376
vertex 8.359265 1.000000 0.718397
vertex 8.358381 1.000000 0.717861
endloop
endfacet
facet normal -0.518343 0.000000 0.855173
outer loop
vertex 8.372429 -1.000000 0.726376
vertex 8.358381 1.000000 0.717861
vertex 8.358381 -1.000000 0.717861
endloop
endfacet
facet normal 0.965104 0.000002 -0.261867
outer loop
vertex 8.488219 -1.000000 0.899929
vertex 8.495170 1.000000 0.925510
vertex 8.495636 1.000000 0.927229
endloop
endfacet
facet normal 0.965020 0.000000 -0.262177
outer loop
vertex 8.488219 -1.000000 0.899929
vertex 8.495636 1.000000 0.927229
vertex 8.495636 -1.000000 0.927229
endloop
endfacet
facet normal 0.422442 0.000002 -0.906390
outer loop
vertex 8.339218 -1.000000 0.708932
vertex 8.357175 1.000000 0.717299
vertex 8.358381 1.000000 0.717861
endloop
endfacet
facet normal 0.422350 0.000000 -0.906433
outer loop
vertex 8.339218 -1.000000 0.708932
vertex 8.358381 1.000000 0.717861
vertex 8.358381 -1.000000 0.717861
endloop
endfacet
facet normal 0.909959 0.000009 -0.414698
outer loop
vertex 8.460087 -1.000000 0.829257
vertex 8.473348 1.000000 0.858347
vertex 8.474238 1.000000 0.860301
endloop
endfacet
facet normal 0.909916 0.000000 -0.414792
outer loop
vertex 8.460087 -1.000000 0.829257
vertex 8.474238 1.000000 0.860301
vertex 8.474238 -1.000000 0.860301
endloop
endfacet
facet normal 0.687027 0.000001 -0.726632
outer loop
vertex 8.390532 -1.000000 0.740849
vertex 8.408095 1.000000 0.757450
vertex 8.409275 1.000000 0.758565
endloop
endfacet
facet normal 0.686917 0.000000 -0.726736
outer loop
vertex 8.390532 -1.000000 0.740849
vertex 8.409275 1.000000 0.758565
vertex 8.409275 -1.000000 0.758565
endloop
endfacet
facet normal -0.224796 -0.000001 0.974406
outer loop
vertex 8.323146 -1.000000 0.702676
vertex 8.317163 1.000000 0.701298
vertex 8.316762 1.000000 0.701206
endloop
endfacet
facet normal -0.224494 0.000000 0.974476
outer loop
vertex 8.323146 -1.000000 0.702676
vertex 8.316762 1.000000 0.701206
vertex 8.316762 -1.000000 0.701206
endloop
endfacet
facet normal -0.999576 -0.000001 0.029128
outer loop
vertex 8.498981 -1.000000 0.967667
vertex 8.499873 1.000000 0.998319
vertex 8.498861 1.000000 0.963596
endloop
endfacet
facet normal -0.999578 -0.000001 0.029035
outer loop
vertex 8.498981 -1.000000 0.967667
vertex 8.498861 1.000000 0.963596
vertex 8.498862 -1.000000 0.963596
endloop
endfacet
facet normal -0.795914 0.000000 0.605409
outer loop
vertex 8.445189 -1.000000 0.801885
vertex 8.445189 1.000000 0.801885
vertex 8.429679 1.000000 0.781495
endloop
endfacet
facet normal -0.795876 0.000000 0.605460
outer loop
vertex 8.445189 -1.000000 0.801885
vertex 8.429679 1.000000 0.781495
vertex 8.443370 -1.000000 0.799495
endloop
endfacet
facet normal -0.518347 0.000000 0.855170
outer loop
vertex 8.374177 -1.000000 0.727435
vertex 8.374177 1.000000 0.727435
vertex 8.359265 1.000000 0.718397
endloop
endfacet
facet normal -0.518375 0.000000 0.855153
outer loop
vertex 8.374177 -1.000000 0.727435
vertex 8.359265 1.000000 0.718397
vertex 8.372429 -1.000000 0.726376
endloop
endfacet
facet normal 0.308056 -0.000007 -0.951368
outer loop
vertex 8.324601 -1.000000 0.703073
vertex 8.329576 1.000000 0.704680
vertex 8.329910 1.000000 0.704788
endloop
endfacet
facet normal 0.307420 0.000000 -0.951574
outer loop
vertex 8.324601 -1.000000 0.703073
vertex 8.329910 1.000000 0.704788
vertex 8.329910 -1.000000 0.704788
endloop
endfacet
facet normal 0.000000 0.000000 1.000000
outer loop
vertex 8.499922 1.000000 1.000000
vertex 8.499922 -1.000000 1.000000
vertex 8.499999 -1.000000 1.000000
endloop
endfacet
facet normal 0.000000 0.000000 1.000000
outer loop
vertex 8.499922 1.000000 1.000000
vertex 8.499999 -1.000000 1.000000
vertex 8.499999 1.000000 1.000000
endloop
endfacet
facet normal 0.624415 0.000000 -0.781093
outer loop
vertex 8.374177 -1.000000 0.727435
vertex 8.374177 1.000000 0.727435
vertex 8.387413 1.000000 0.738017
endloop
endfacet
facet normal 0.624483 0.000004 -0.781039
outer loop
vertex 8.374177 -1.000000 0.727435
vertex 8.387413 1.000000 0.738017
vertex 8.375729 -1.000000 0.728676
endloop
endfacet
facet normal 1.000000 0.000000 0.000000
outer loop
vertex 8.500000 1.000000 0.700000
vertex 8.500000 1.000000 1.000000
vertex 8.500000 -1.000000 1.000000
endloop
endfacet
facet normal 1.000000 0.000000 0.000000
outer loop
vertex 8.500000 1.000000 0.700000
vertex 8.500000 -1.000000 1.000000
vertex 8.500000 -1.000000 0.700000
endloop
endfacet
facet normal -1.000000 0.000000 0.000000
outer loop
vertex 8.500000 -1.000000 0.700000
vertex 8.500000 -1.000000 1.000000
vertex 8.500000 1.000000 1.000000
endloop
endfacet
facet normal -1.000000 0.000000 0.000000
outer loop
vertex 8.500000 -1.000000 0.700000
vertex 8.500000 1.000000 1.000000
vertex 8.500000 1.000000 0.700000
endloop
endfacet
facet normal 1.000000 0.000000 0.000000
outer loop
vertex 8.600001 -0.900000 0.800000
vertex 8.600000 0.900000 0.800000
vertex 8.600000 0.900000 1.000000
endloop
endfacet
facet normal 1.000000 0.000001 0.000000
outer loop
vertex 8.600001 -0.900000 0.800000
vertex 8.600000 0.900000 1.000000
vertex 8.600001 -0.900000 1.000000
endloop
endfacet
facet normal -0.000000 -1.000000 0.000000
outer loop
vertex 8.600000 0.900000 0.800000
vertex 11.400002 0.900000 0.800000
vertex 11.400002 0.900000 1.000000
endloop
endfacet
facet normal -0.000000 -1.000000 0.000000
outer loop
vertex 8.600000 0.900000 0.800000
vertex 11.400002 0.900000 1.000000
vertex 8.600000 0.900000 1.000000
endloop
endfacet
facet normal -1.000000 0.000000 0.000000
outer loop
vertex 11.400002 0.900000 0.800000
vertex 11.400002 -0.900000 0.800000
vertex 11.400002 -0.900000 1.000000
endloop
endfacet
facet normal -1.000000 0.000000 0.000000
outer loop
vertex 11.400002 0.900000 0.800000
vertex 11.400002 -0.900000 1.000000
vertex 11.400002 0.900000 1.000000
endloop
endfacet
facet normal 0.000000 1.000000 0.000000
outer loop
vertex 11.400002 -0.900000 0.800000
vertex 8.600001 -0.900000 0.800000
vertex 8.600001 -0.900000 1.000000
endloop
endfacet
facet normal 0.000000 1.000000 0.000000
outer loop
vertex 11.400002 -0.900000 0.800000
vertex 8.600001 -0.900000 1.000000
vertex 11.400002 -0.900000 1.000000
endloop
endfacet
facet normal 0.000000 0.000000 1.000000
outer loop
vertex 8.600000 0.900000 0.800000
vertex 8.600001 -0.900000 0.800000
vertex 11.400002 -0.900000 0.800000
endloop
endfacet
facet normal -0.000000 0.000000 1.000000
outer loop
vertex 8.600000 0.900000 0.800000
vertex 11.400002 -0.900000 0.800000
vertex 11.400002 0.900000 0.800000
endloop
endfacet
facet normal -1.000000 0.000000 0.000000
outer loop
vertex 8.500001 -1.000000 0.700000
vertex 8.500001 -1.000000 1.000000
vertex 8.500001 1.000000 1.000000
endloop
endfacet
facet normal -1.000000 0.000000 0.000000
outer loop
vertex 8.500001 -1.000000 0.700000
vertex 8.500001 1.000000 1.000000
vertex 8.500001 1.000000 0.700000
endloop
endfacet
facet normal 0.000000 1.000000 0.000000
outer loop
vertex 8.500001 1.000000 0.700000
vertex 8.500001 1.000000 1.000000
vertex 11.500001 1.000000 1.000000
endloop
endfacet
facet normal 0.000000 1.000000 0.000000
outer loop
vertex 8.500001 1.000000 0.700000
vertex 11.500001 1.000000 1.000000
vertex 11.500001 1.000000 0.700000
endloop
endfacet
facet normal 1.000000 0.000000 0.000000
outer loop
vertex 11.500001 1.000000 0.700000
vertex 11.500001 1.000000 1.000000
vertex 11.500001 -1.000000 1.000000
endloop
endfacet
facet normal 1.000000 0.000000 0.000000
outer loop
vertex 11.500001 1.000000 0.700000
vertex 11.500001 -1.000000 1.000000
vertex 11.500001 -1.000000 0.700000
endloop
endfacet
facet normal 0.000000 -1.000000 0.000000
outer loop
vertex 11.500001 -1.000000 0.700000
vertex 11.500001 -1.000000 1.000000
vertex 8.500001 -1.000000 1.000000
endloop
endfacet
facet normal 0.000000 -1.000000 0.000000
outer loop
vertex 11.500001 -1.000000 0.700000
vertex 8.500001 -1.000000 1.000000
vertex 8.500001 -1.000000 0.700000
endloop
endfacet
facet normal 0.000000 0.000000 -1.000000
outer loop
vertex 8.500001 1.000000 0.700000
vertex 11.500001 1.000000 0.700000
vertex 11.500001 -1.000000 0.700000
endloop
endfacet
facet normal 0.000000 0.000000 -1.000000
outer loop
vertex 8.500001 1.000000 0.700000
vertex 11.500001 -1.000000 0.700000
vertex 8.500001 -1.000000 0.700000
endloop
endfacet
facet normal 0.000001 0.000000 1.000000
outer loop
vertex 11.500001 -1.000000 1.000000
vertex 11.500001 1.000000 1.000000
vertex 11.400002 0.900000 1.000000
endloop
endfacet
facet normal 0.000000 0.000000 1.000000
outer loop
vertex 11.400002 -0.900000 1.000000
vertex 8.600001 -0.900000 1.000000
vertex 8.500001 -1.000000 1.000000
endloop
endfacet
facet normal 0.000003 0.000000 1.000000
outer loop
vertex 11.500001 -1.000000 1.000000
vertex 11.400002 0.900000 1.000000
vertex 11.400002 -0.900000 1.000000
endloop
endfacet
facet normal 0.000000 -0.000001 1.000000
outer loop
vertex 11.400002 -0.900000 1.000000
vertex 8.500001 -1.000000 1.000000
vertex 11.500001 -1.000000 1.000000
endloop
endfacet
facet normal -0.000000 0.000000 1.000000
outer loop
vertex 8.500001 1.000000 1.000000
vertex 8.500001 -1.000000 1.000000
vertex 8.600001 -0.900000 1.000000
endloop
endfacet
facet normal 0.000000 0.000001 1.000000
outer loop
vertex 8.600000 0.900000 1.000000
vertex 11.400002 0.900000 1.000000
vertex 11.500001 1.000000 1.000000
endloop
endfacet
facet normal -0.000001 0.000000 1.000000
outer loop
vertex 8.500001 1.000000 1.000000
vertex 8.600001 -0.900000 1.000000
vertex 8.600000 0.900000 1.000000
endloop
endfacet
facet normal 0.000000 0.000000 1.000000
outer loop
vertex 8.600000 0.900000 1.000000
vertex 11.500001 1.000000 1.000000
vertex 8.500001 1.000000 1.000000
endloop
endfacet
facet normal -1.000000 0.000000 0.000000
outer loop
vertex 11.400002 -1.000000 0.700000
vertex 11.400002 -1.000000 1.300000
vertex 11.400002 1.000000 1.300000
endloop
endfacet
facet normal -1.000000 0.000000 0.000000
outer loop
vertex 11.400002 -1.000000 0.700000
vertex 11.400002 1.000000 1.300000
vertex 11.400002 1.000000 0.700000
endloop
endfacet
facet normal 0.000000 1.000000 0.000000
outer loop
vertex 11.400002 1.000000 0.700000
vertex 11.400002 1.000000 1.300000
vertex 11.500001 1.000000 1.300000
endloop
endfacet
facet normal 0.000000 1.000000 0.000000
outer loop
vertex 11.400002 1.000000 0.700000
vertex 11.500001 1.000000 1.300000
vertex 11.500001 1.000000 0.700000
endloop
endfacet
facet normal 1.000000 0.000000 0.000000
outer loop
vertex 11.500001 1.000000 0.700000
vertex 11.500001 1.000000 1.300000
vertex 11.500001 -1.000000 1.300000
endloop
endfacet
facet normal 1.000000 0.000000 0.000000
outer loop
vertex 11.500001 1.000000 0.700000
vertex 11.500001 -1.000000 1.300000
vertex 11.500001 -1.000000 0.700000
endloop
endfacet
facet normal 0.000000 -1.000000 0.000000
outer loop
vertex 11.500001 -1.000000 0.700000
vertex 11.500001 -1.000000 1.300000
vertex 11.400002 -1.000000 1.300000
endloop
endfacet
facet normal 0.000000 -1.000000 0.000000
outer loop
vertex 11.500001 -1.000000 0.700000
vertex 11.400002 -1.000000 1.300000
vertex 11.400002 -1.000000 0.700000
endloop
endfacet
facet normal 0.000000 0.000000 -1.000000
outer loop
vertex 11.400002 1.000000 0.700000
vertex 11.500001 1.000000 0.700000
vertex 11.500001 -1.000000 0.700000
endloop
endfacet
facet normal 0.000000 0.000000 -1.000000
outer loop
vertex 11.400002 1.000000 0.700000
vertex 11.500001 -1.000000 0.700000
vertex 11.400002 -1.000000 0.700000
endloop
endfacet
facet normal 0.000000 0.000000 1.000000
outer loop
vertex 11.500001 1.000000 1.300000
vertex 11.400002 1.000000 1.300000
vertex 11.400002 -1.000000 1.300000
endloop
endfacet
facet normal 0.000000 0.000000 1.000000
outer loop
vertex 11.500001 1.000000 1.300000
vertex 11.400002 -1.000000 1.300000
vertex 11.500001 -1.000000 1.300000
endloop
endfacet
endsolid Exported from Blender-2.83.9
